<svg width="85" height="67" viewBox="0 0 85 67" fill="none" xmlns="http://www.w3.org/2000/svg">
<path d="M1.78418 16.4277C1.78418 15.3893 1.9069 14.3934 2.15234 13.4399C2.40723 12.4771 2.76595 11.5802 3.22852 10.7495C3.69108 9.91878 4.24805 9.16357 4.89941 8.48389C5.56022 7.8042 6.29655 7.22363 7.1084 6.74219C7.92025 6.2513 8.79818 5.8737 9.74219 5.60938C10.6956 5.34505 11.6963 5.21289 12.7441 5.21289C13.5749 5.21289 14.3018 5.26953 14.9248 5.38281C15.5573 5.48665 16.1048 5.62354 16.5674 5.79346C17.0394 5.95394 17.4312 6.1333 17.7427 6.33154C18.0636 6.52979 18.328 6.71859 18.5356 6.89795C18.5262 6.89795 18.5215 6.93099 18.5215 6.99707C18.5215 7.13867 18.5309 7.39827 18.5498 7.77588C18.5781 8.15348 18.6064 8.57357 18.6348 9.03613C18.6725 9.4987 18.7008 9.9707 18.7197 10.4521C18.748 10.9242 18.7622 11.3348 18.7622 11.6841C18.7622 11.7407 18.7433 11.8068 18.7056 11.8823C18.6678 11.9484 18.5734 11.9814 18.4224 11.9814C18.3374 11.9814 18.2336 11.9673 18.1108 11.939C17.9126 11.8823 17.6624 11.7549 17.3604 11.5566C17.0583 11.349 16.7043 11.1366 16.2983 10.9194C15.9019 10.6929 15.4535 10.4946 14.9531 10.3247C14.4622 10.1453 13.9242 10.0557 13.3389 10.0557C12.5648 10.0557 11.8615 10.2114 11.229 10.5229C10.5965 10.825 10.0584 11.2451 9.61475 11.7832C9.17106 12.3213 8.8265 12.9632 8.58105 13.709C8.33561 14.4453 8.21289 15.2524 8.21289 16.1304C8.21289 16.9045 8.29785 17.6455 8.46777 18.3535C8.6377 19.0521 8.89258 19.6657 9.23242 20.1943C9.58171 20.723 10.0112 21.1478 10.521 21.4688C11.0402 21.7803 11.6396 21.936 12.3193 21.936C12.8574 21.936 13.3341 21.9172 13.7495 21.8794C14.1649 21.8416 14.5519 21.7803 14.9106 21.6953C15.2694 21.6104 15.6187 21.4971 15.9585 21.3555C16.3078 21.2139 16.6807 21.0345 17.0771 20.8174C17.096 20.8079 17.1432 20.8032 17.2188 20.8032C17.2848 20.8032 17.3273 20.8315 17.3462 20.8882C17.3745 20.9354 17.3887 21.0392 17.3887 21.1997V22.8989C17.3887 23.2104 17.384 23.5173 17.3745 23.8193C17.3745 24.112 17.3698 24.3763 17.3604 24.6123C17.3604 24.8483 17.3556 25.0418 17.3462 25.1929C17.3462 25.3345 17.3415 25.4053 17.332 25.4053C16.8978 25.679 16.4305 25.9009 15.9302 26.0708C15.4393 26.2502 14.9295 26.387 14.4009 26.4814C13.8817 26.5853 13.3577 26.6514 12.8291 26.6797C12.3005 26.7174 11.7907 26.7363 11.2998 26.7363C9.96875 26.7363 8.72266 26.4862 7.56152 25.9858C6.40039 25.4761 5.3903 24.7681 4.53125 23.8618C3.68164 22.9556 3.01139 21.87 2.52051 20.605C2.02962 19.34 1.78418 17.9476 1.78418 16.4277ZM26.4027 32.457C26.3838 32.4948 26.3602 32.5231 26.3319 32.542C26.313 32.5703 26.2752 32.5845 26.2186 32.5845C26.162 32.5845 26.1195 32.5798 26.0912 32.5703C25.7513 32.4476 25.4304 32.3438 25.1283 32.2588C24.8262 32.1738 24.5241 32.0936 24.222 32.0181C23.9294 31.952 23.6273 31.8859 23.3158 31.8198C23.0042 31.7632 22.6738 31.6971 22.3246 31.6216C22.2302 31.6027 22.1546 31.5697 22.098 31.5225C22.0508 31.4847 22.0272 31.4139 22.0272 31.3101C22.0272 31.2817 22.0414 31.2109 22.0697 31.0977C22.1074 30.9938 22.1924 30.772 22.3246 30.4321C22.4567 30.1017 22.6597 29.6156 22.9334 28.9736C23.2072 28.3411 23.5848 27.4868 24.0663 26.4106C23.9247 25.9386 23.7642 25.3722 23.5848 24.7114C23.4055 24.0506 23.2119 23.3285 23.0042 22.5449C22.806 21.7614 22.5983 20.9354 22.3812 20.0669C22.1641 19.189 21.9422 18.3063 21.7157 17.4189C21.4986 16.5221 21.2767 15.6395 21.0501 14.771C20.833 13.8931 20.6206 13.0576 20.4129 12.2646C20.3469 12.1136 20.3091 11.9909 20.2997 11.8965C20.2902 11.7926 20.2855 11.7077 20.2855 11.6416C20.2855 11.5094 20.361 11.4245 20.5121 11.3867C21.2484 11.2262 22.013 11.061 22.806 10.8911C23.599 10.7118 24.3495 10.4852 25.0575 10.2114C25.0858 10.202 25.1283 10.1973 25.1849 10.1973C25.3076 10.1973 25.3737 10.2445 25.3832 10.3389L27.1107 19.8545C27.1485 19.7412 27.2193 19.5382 27.3231 19.2456C27.4364 18.9435 27.5638 18.5848 27.7054 18.1694C27.8565 17.7541 28.0217 17.2962 28.201 16.7959C28.3804 16.2956 28.5645 15.7858 28.7533 15.2666C28.9421 14.7474 29.1262 14.2329 29.3055 13.7231C29.4943 13.2039 29.669 12.7225 29.8294 12.2788C29.9899 11.8351 30.1268 11.4434 30.2401 11.1035C30.3628 10.7637 30.4572 10.5088 30.5233 10.3389C30.5611 10.2445 30.6319 10.1973 30.7357 10.1973C30.764 10.1973 30.7829 10.202 30.7923 10.2114C30.8018 10.2114 30.8207 10.2114 30.849 10.2114C31.557 10.4852 32.2839 10.7118 33.0296 10.8911C33.7754 11.061 34.5165 11.2262 35.2528 11.3867C35.4321 11.4245 35.5218 11.5283 35.5218 11.6982C35.5218 11.821 35.4652 12.0098 35.3519 12.2646L29.5179 25.4478L26.4027 32.457ZM42.6384 21.3838C42.7328 21.5726 42.8649 21.7661 43.0349 21.9644C43.2142 22.1532 43.4172 22.3278 43.6438 22.4883C43.8798 22.6488 44.1346 22.7809 44.4084 22.8848C44.6822 22.9792 44.9654 23.0264 45.258 23.0264C45.6639 23.0264 46.0463 22.8706 46.405 22.5591C46.7637 22.2381 47.0752 21.8133 47.3396 21.2847C47.6133 20.7466 47.8257 20.1377 47.9768 19.458C48.1278 18.7689 48.2033 18.0562 48.2033 17.3198C48.2033 16.8667 48.1608 16.4372 48.0759 16.0312C48.0004 15.6253 47.8776 15.2713 47.7077 14.9692C47.5378 14.6672 47.316 14.4264 47.0422 14.2471C46.7779 14.0677 46.4569 13.978 46.0793 13.978C45.4657 13.978 44.904 14.1574 44.3942 14.5161C43.8845 14.8748 43.455 15.3327 43.1057 15.8896L42.6384 21.3838ZM37.3708 26.6938C37.2386 26.7222 37.1348 26.7363 37.0593 26.7363C36.7572 26.7363 36.6062 26.557 36.6062 26.1982C36.6062 26.151 36.6062 26.1038 36.6062 26.0566C36.6156 26.0094 36.625 25.9575 36.6345 25.9009L38.2771 5.86426C38.2771 5.83594 38.2771 5.80762 38.2771 5.7793C38.2865 5.75098 38.2912 5.72738 38.2912 5.7085C38.2912 5.67074 38.2865 5.6377 38.2771 5.60938C38.2771 5.58105 38.2771 5.55745 38.2771 5.53857C38.2771 5.45361 38.3054 5.38753 38.362 5.34033C38.4281 5.28369 38.5886 5.22233 38.8435 5.15625L42.8225 4.20752C42.9263 4.18864 43.0632 4.14616 43.2331 4.08008C43.403 4.014 43.5682 3.98096 43.7287 3.98096C43.8514 3.98096 43.9647 4.00928 44.0686 4.06592C44.1818 4.12256 44.2385 4.23112 44.2385 4.3916C44.2385 4.41048 44.2338 4.42936 44.2243 4.44824C44.2243 4.46712 44.2243 4.486 44.2243 4.50488C44.2149 4.55208 44.1913 4.75977 44.1535 5.12793C44.1158 5.49609 44.0733 5.9445 44.0261 6.47314C43.9789 6.99235 43.927 7.55404 43.8703 8.1582C43.8137 8.75293 43.7618 9.31462 43.7146 9.84326C43.6674 10.3625 43.6249 10.8062 43.5871 11.1743C43.5494 11.5425 43.5258 11.7502 43.5163 11.7974C44.2054 11.3442 44.9182 10.9666 45.6545 10.6646C46.3908 10.353 47.1272 10.1973 47.8635 10.1973C48.8358 10.1973 49.676 10.4002 50.384 10.8062C51.092 11.2026 51.6773 11.736 52.1398 12.4062C52.6024 13.0671 52.9423 13.8317 53.1594 14.7002C53.3859 15.5687 53.4992 16.4655 53.4992 17.3906C53.4992 18.1364 53.4284 18.8869 53.2868 19.6421C53.1547 20.3879 52.9564 21.1053 52.6921 21.7944C52.4372 22.4836 52.1115 23.1302 51.715 23.7344C51.328 24.3385 50.8796 24.8625 50.3698 25.3062C49.8695 25.7498 49.3078 26.0991 48.6848 26.354C48.0617 26.6089 47.3868 26.7363 46.6599 26.7363C45.7819 26.7363 44.9795 26.5428 44.2526 26.1558C43.5258 25.7687 42.8508 25.2684 42.2277 24.6548C42.2089 24.8813 42.1947 25.0607 42.1853 25.1929C42.1758 25.325 42.1428 25.4289 42.0861 25.5044C42.0389 25.5705 41.9634 25.6271 41.8596 25.6743C41.7557 25.7121 41.6 25.7546 41.3923 25.8018C41.2884 25.8301 41.1044 25.8773 40.84 25.9434C40.5852 26 40.2736 26.0661 39.9055 26.1416C39.5467 26.2266 39.1455 26.3162 38.7019 26.4106C38.2676 26.505 37.8239 26.5994 37.3708 26.6938ZM64.1417 10.1973C65.0385 10.1973 65.8503 10.3672 66.5772 10.707C67.3135 11.0374 67.9413 11.4717 68.4605 12.0098C68.9891 12.5384 69.3951 13.1331 69.6783 13.7939C69.9615 14.4548 70.1031 15.1156 70.1031 15.7764C70.1031 16.3617 69.9237 16.9517 69.565 17.5464C69.2063 18.1317 68.7012 18.6603 68.0499 19.1323C67.4079 19.6043 66.6338 19.9867 65.7276 20.2793C64.8213 20.5719 63.8254 20.7183 62.7398 20.7183C62.1734 20.7183 61.5787 20.6616 60.9556 20.5483C60.9934 20.9543 61.1114 21.3035 61.3096 21.5962C61.5079 21.8888 61.758 22.1296 62.0601 22.3184C62.3622 22.5072 62.702 22.6488 63.0796 22.7432C63.4667 22.8281 63.8632 22.8706 64.2691 22.8706C64.7222 22.8706 65.1565 22.8328 65.5718 22.7573C65.9966 22.6724 66.4026 22.5638 66.7896 22.4316C67.1766 22.2995 67.5495 22.1532 67.9083 21.9927C68.267 21.8322 68.6068 21.6717 68.9278 21.5112C69.0127 21.4924 69.0835 21.4782 69.1402 21.4688C69.2063 21.4499 69.2676 21.4404 69.3243 21.4404C69.3243 21.4404 69.3196 21.516 69.3101 21.667C69.3101 21.818 69.3101 22.0304 69.3101 22.3042C69.3101 22.578 69.3054 22.9084 69.296 23.2954C69.296 23.6825 69.2912 24.112 69.2818 24.584C69.3101 24.6312 69.329 24.6784 69.3384 24.7256C69.3479 24.7728 69.3526 24.8105 69.3526 24.8389C69.3526 24.9521 69.2488 25.0749 69.0411 25.207C68.8334 25.3392 68.5596 25.4761 68.2198 25.6177C67.8894 25.7593 67.5071 25.8962 67.0728 26.0283C66.648 26.1605 66.2138 26.2785 65.7701 26.3823C65.3264 26.4956 64.8969 26.5806 64.4815 26.6372C64.0661 26.7033 63.7027 26.7363 63.3912 26.7363C62.3716 26.7363 61.3804 26.557 60.4175 26.1982C59.4641 25.849 58.6145 25.3439 57.8687 24.6831C57.1324 24.0223 56.5424 23.2199 56.0987 22.2759C55.655 21.3319 55.4332 20.2699 55.4332 19.0898C55.4332 17.8532 55.6456 16.6968 56.0704 15.6206C56.4952 14.535 57.0899 13.591 57.8545 12.7886C58.6286 11.9862 59.549 11.3537 60.6158 10.8911C61.6825 10.4285 62.8578 10.1973 64.1417 10.1973ZM63.9717 13.9639C63.5847 13.9639 63.226 14.0488 62.8956 14.2188C62.5746 14.3792 62.2772 14.6152 62.0035 14.9268C61.7391 15.2288 61.5079 15.597 61.3096 16.0312C61.1114 16.4561 60.9509 16.9281 60.8282 17.4473C61.8005 17.2773 62.6076 17.098 63.2496 16.9092C63.8915 16.7204 64.406 16.5316 64.793 16.3428C65.1801 16.1445 65.4538 15.951 65.6143 15.7622C65.7748 15.564 65.855 15.3752 65.855 15.1958C65.855 15.0259 65.789 14.8654 65.6568 14.7144C65.5341 14.5633 65.3783 14.4312 65.1895 14.3179C65.0007 14.2046 64.793 14.1196 64.5665 14.063C64.3493 13.9969 64.1511 13.9639 63.9717 13.9639ZM83.8041 14.4736C83.6059 14.4548 83.384 14.4359 83.1386 14.417C82.8931 14.3887 82.6335 14.3745 82.3598 14.3745C81.9444 14.3745 81.5196 14.4123 81.0854 14.4878C80.6606 14.5539 80.2641 14.6908 79.8959 14.8984C79.5277 15.1061 79.2115 15.394 78.9472 15.7622C78.6829 16.1209 78.5129 16.5882 78.4374 17.1641C78.3713 17.8626 78.3147 18.4385 78.2675 18.8916C78.2297 19.3353 78.2014 19.7035 78.1825 19.9961C78.1636 20.2793 78.1448 20.5106 78.1259 20.6899C78.1164 20.8599 78.107 21.0203 78.0976 21.1714C78.0976 21.2091 78.0881 21.313 78.0692 21.4829C78.0598 21.6528 78.0409 21.8511 78.0126 22.0776C77.9843 22.3042 77.956 22.5496 77.9276 22.814C77.9088 23.0783 77.8852 23.3237 77.8568 23.5503C77.8285 23.7769 77.8049 23.9751 77.786 24.145C77.7766 24.3149 77.7719 24.4188 77.7719 24.4565C77.7719 24.5321 77.7719 24.5981 77.7719 24.6548C77.7813 24.702 77.786 24.7492 77.786 24.7964C77.786 24.8719 77.7483 24.938 77.6728 24.9946C77.6067 25.0418 77.4509 25.0985 77.2055 25.1646L73.453 26.5098C73.3492 26.5475 73.2123 26.5947 73.0424 26.6514C72.8725 26.708 72.7073 26.7363 72.5468 26.7363C72.4146 26.7363 72.2966 26.7033 72.1928 26.6372C72.0984 26.5711 72.0512 26.4578 72.0512 26.2974L73.269 12.2646C73.2973 11.9531 73.3303 11.7407 73.3681 11.6274C73.4153 11.5047 73.5238 11.4245 73.6938 11.3867C74.5528 11.2168 75.4402 11.0469 76.3559 10.877C77.2716 10.6976 78.1589 10.471 79.018 10.1973C79.0935 10.1973 79.136 10.2114 79.1454 10.2397C79.1643 10.2586 79.1737 10.2917 79.1737 10.3389C79.1737 10.3577 79.169 10.3861 79.1596 10.4238C79.1596 10.4616 79.1454 10.5465 79.1171 10.6787C79.0982 10.8109 79.0652 11.0138 79.018 11.2876C78.9802 11.5519 78.9236 11.9248 78.8481 12.4062C79.2823 12.0664 79.759 11.7549 80.2782 11.4717C80.8069 11.1885 81.3355 10.9478 81.8642 10.7495C82.3928 10.5418 82.9026 10.3813 83.3935 10.2681C83.8843 10.1453 84.3139 10.084 84.682 10.084L83.8041 14.4736Z" fill="black"/>
<path d="M19.8384 44.2876C19.8289 45.0994 19.7487 45.8263 19.5977 46.4683C19.4561 47.1102 19.2484 47.6908 18.9746 48.21C18.7103 48.7197 18.3846 49.1823 17.9976 49.5977C17.62 50.0036 17.1857 50.3859 16.6948 50.7446C15.7508 51.4243 14.7171 51.9388 13.5938 52.2881C12.4704 52.6279 11.3423 52.7979 10.2095 52.7979C10.0207 52.7979 9.83187 52.7931 9.64307 52.7837C9.4637 52.7743 9.27962 52.7601 9.09082 52.7412L8.62354 57.9097L8.38281 58.3486C8.36393 58.3864 8.20345 58.4619 7.90137 58.5752C7.59928 58.6885 7.22168 58.8206 6.76855 58.9717L5.87646 59.269C5.59326 59.3729 5.3431 59.4673 5.12598 59.5522C4.90885 59.6372 4.70589 59.7127 4.51709 59.7788C4.32829 59.8449 4.14421 59.8921 3.96484 59.9204C3.78548 59.9582 3.59668 59.9771 3.39844 59.9771C3.26628 59.9771 3.16243 59.944 3.08691 59.8779C3.01139 59.8118 2.97363 59.6844 2.97363 59.4956L3.12939 57.0742C3.15771 56.5928 3.19076 56.1113 3.22852 55.6299C3.27572 55.139 3.3182 54.582 3.35596 53.959L3.625 50.5747C3.68164 49.8856 3.73356 49.1965 3.78076 48.5073C3.82796 47.8182 3.87516 47.1621 3.92236 46.5391C3.96956 45.916 4.01204 45.3354 4.0498 44.7974C4.08757 44.2498 4.12061 43.7731 4.14893 43.3672C3.63916 43.4805 3.22852 43.5654 2.91699 43.6221C2.61491 43.6693 2.38363 43.6929 2.22314 43.6929C2.0249 43.6929 1.92578 43.6079 1.92578 43.438C2.05794 42.9754 2.18066 42.5223 2.29395 42.0786C2.39779 41.701 2.50163 41.314 2.60547 40.9175C2.71875 40.5116 2.81315 40.1717 2.88867 39.8979C2.93587 39.728 2.98779 39.6006 3.04443 39.5156C3.11051 39.4212 3.19076 39.3504 3.28516 39.3032C3.389 39.2466 3.51644 39.1994 3.66748 39.1616C3.82796 39.1144 4.02148 39.0531 4.24805 38.9775C4.42741 38.9209 4.67757 38.8595 4.99854 38.7935C5.32894 38.7179 5.70182 38.6471 6.11719 38.5811C6.54199 38.5055 6.99984 38.4347 7.49072 38.3687C7.98161 38.3026 8.47721 38.2459 8.97754 38.1987C9.4873 38.1421 9.98763 38.0996 10.4785 38.0713C10.9694 38.0335 11.432 38.0146 11.8662 38.0146C12.9424 38.0146 13.9619 38.1138 14.9248 38.312C15.8877 38.5103 16.7326 38.8501 17.4595 39.3315C18.1864 39.8035 18.7622 40.4455 19.187 41.2573C19.6213 42.0597 19.8384 43.0698 19.8384 44.2876ZM9.4873 48.5356C9.4873 48.6395 9.50618 48.7339 9.54395 48.8188C9.58171 48.8944 9.68555 48.9321 9.85547 48.9321C10.1198 48.9321 10.4313 48.8755 10.79 48.7622C11.1582 48.6395 11.5216 48.4601 11.8804 48.2241C12.2485 47.9881 12.5884 47.6955 12.8999 47.3462C13.2114 46.9969 13.4474 46.5863 13.6079 46.1143C13.674 45.9255 13.7259 45.6847 13.7637 45.3921C13.8109 45.0994 13.8345 44.7549 13.8345 44.3584C13.8345 43.6976 13.6032 43.2114 13.1406 42.8999C12.6875 42.5884 12.0928 42.4326 11.3564 42.4326C11.2337 42.4326 11.0921 42.4421 10.9316 42.4609C10.7806 42.4704 10.6343 42.494 10.4927 42.5317C10.3605 42.5695 10.2472 42.6167 10.1528 42.6733C10.0584 42.7205 10.0065 42.7866 9.99707 42.8716L9.96875 43.1831C9.95931 43.3058 9.94043 43.5088 9.91211 43.792C9.88379 44.0658 9.85075 44.382 9.81299 44.7407C9.78467 45.0994 9.75163 45.4771 9.71387 45.8735C9.68555 46.27 9.65251 46.6476 9.61475 47.0063C9.58643 47.3651 9.55811 47.6813 9.52979 47.9551C9.5109 48.2288 9.49674 48.4224 9.4873 48.5356ZM59.117 59.5098C59.0131 59.5381 58.8762 59.5806 58.7063 59.6372C58.5364 59.7033 58.3712 59.7363 58.2107 59.7363C58.0785 59.7363 57.9605 59.7033 57.8567 59.6372C57.7623 59.5711 57.7151 59.4578 57.7151 59.2974V59.2124C57.7717 58.7026 57.8189 58.2731 57.8567 57.9238C57.8945 57.5651 57.9275 57.2441 57.9558 56.9609C57.9936 56.6683 58.0219 56.3804 58.0408 56.0972C58.0691 55.8045 58.1021 55.4694 58.1399 55.0918C58.1777 54.7048 58.2201 54.2516 58.2673 53.7324C58.324 53.2038 58.3901 52.5477 58.4656 51.7642C58.5128 51.2827 58.5553 50.7918 58.593 50.2915C58.6308 49.7912 58.6497 49.3286 58.6497 48.9038C58.6497 48.6206 58.6261 48.361 58.5789 48.125C58.5411 47.8796 58.4656 47.6719 58.3523 47.502C58.2485 47.3226 58.1021 47.1857 57.9133 47.0913C57.7245 46.9969 57.4838 46.9497 57.1912 46.9497C56.9741 46.9497 56.672 46.9969 56.2849 47.0913C55.9073 47.1857 55.5297 47.3415 55.1521 47.5586C54.7745 47.7757 54.4394 48.0636 54.1467 48.4224C53.8541 48.7716 53.6889 49.2059 53.6511 49.7251C53.5945 50.4237 53.5426 51.0231 53.4954 51.5234C53.4482 52.0143 53.4057 52.4344 53.3679 52.7837C53.3302 53.1235 53.2971 53.402 53.2688 53.6191C53.2499 53.8363 53.2358 54.0203 53.2263 54.1714C53.2169 54.2091 53.2027 54.313 53.1838 54.4829C53.165 54.6528 53.1414 54.8558 53.113 55.0918C53.0942 55.3278 53.0706 55.578 53.0422 55.8423C53.0234 56.1066 52.9998 56.3568 52.9714 56.5928C52.9526 56.8288 52.9337 57.0317 52.9148 57.2017C52.9054 57.3716 52.9006 57.4754 52.9006 57.5132C52.9006 57.5887 52.9006 57.6548 52.9006 57.7114C52.9101 57.7586 52.9148 57.8058 52.9148 57.853C52.9148 57.9285 52.877 57.9946 52.8015 58.0513C52.7354 58.0985 52.5797 58.1551 52.3342 58.2212L48.5818 59.5098C48.478 59.5475 48.3411 59.5947 48.1712 59.6514C48.0012 59.708 47.836 59.7363 47.6755 59.7363C47.5434 59.7363 47.4254 59.7033 47.3215 59.6372C47.2271 59.5711 47.1799 59.4578 47.1799 59.2974L48.4685 44.8257C48.4968 44.5142 48.5299 44.3018 48.5676 44.1885C48.6148 44.0658 48.7234 43.9855 48.8933 43.9478C49.7524 43.7778 50.635 43.6079 51.5413 43.438C52.4475 43.2586 53.3302 43.0321 54.1892 42.7583C54.2647 42.7583 54.3072 42.7725 54.3167 42.8008C54.3355 42.8197 54.345 42.8527 54.345 42.8999C54.345 42.9188 54.3403 42.9471 54.3308 42.9849C54.3308 43.0226 54.3167 43.1076 54.2883 43.2397C54.2695 43.3719 54.2364 43.5749 54.1892 43.8486C54.1515 44.113 54.0948 44.4858 54.0193 44.9673C54.6707 44.5897 55.2796 44.2876 55.846 44.061C56.4218 43.825 56.9599 43.6457 57.4602 43.5229C57.97 43.3908 58.4467 43.3058 58.8904 43.2681C59.3341 43.2209 59.7494 43.1973 60.1365 43.1973C61.4675 43.1973 62.4352 43.6032 63.0393 44.415C63.6435 45.2174 63.9456 46.4258 63.9456 48.04C63.9456 48.2666 63.9408 48.5026 63.9314 48.748C63.922 48.984 63.9031 49.2295 63.8748 49.4844L63.2234 55.5732C63.1762 55.9697 63.1479 56.3379 63.1384 56.6777C63.129 57.0081 63.1243 57.3952 63.1243 57.8389C63.1243 57.9144 63.1243 57.9805 63.1243 58.0371C63.1337 58.0843 63.1384 58.1268 63.1384 58.1646C63.1384 58.2495 63.1007 58.3156 63.0252 58.3628C62.9591 58.41 62.8033 58.4714 62.5579 58.5469L59.117 59.5098ZM76.7545 48.9038C76.6601 48.6867 76.5279 48.4648 76.358 48.2383C76.1975 48.0117 76.0087 47.804 75.7916 47.6152C75.5745 47.4264 75.3385 47.2754 75.0836 47.1621C74.8287 47.0394 74.5597 46.978 74.2765 46.978C73.8894 46.978 73.526 47.1385 73.1861 47.4595C72.8463 47.7804 72.5489 48.21 72.2941 48.748C72.0392 49.2767 71.8362 49.8856 71.6852 50.5747C71.5436 51.2544 71.4728 51.9624 71.4728 52.6987C71.4728 53.1519 71.5105 53.5814 71.586 53.9873C71.671 54.3838 71.7984 54.7331 71.9684 55.0352C72.1383 55.3372 72.3554 55.578 72.6197 55.7573C72.8935 55.9367 73.2192 56.0264 73.5968 56.0264C74.1632 56.0264 74.6824 55.8517 75.1544 55.5024C75.6264 55.1437 76.0276 54.6812 76.358 54.1147C76.3675 53.9165 76.3816 53.6805 76.4005 53.4067C76.4194 53.133 76.443 52.8026 76.4713 52.4155C76.4996 52.019 76.5327 51.5565 76.5704 51.0278C76.6176 50.4897 76.6743 49.8525 76.7403 49.1162L76.7545 48.9038ZM81.4415 57.4565C81.3471 58.3911 81.1347 59.2643 80.8043 60.0762C80.4739 60.888 80.0538 61.6291 79.5441 62.2993C79.0437 62.979 78.4679 63.5832 77.8165 64.1118C77.1746 64.6499 76.4902 65.103 75.7633 65.4712C75.0458 65.8394 74.3048 66.1178 73.5401 66.3066C72.7755 66.5049 72.0203 66.604 71.2745 66.604C70.878 66.604 70.4721 66.5898 70.0567 66.5615C69.6414 66.5332 69.2355 66.4766 68.839 66.3916C68.4425 66.3161 68.0649 66.2028 67.7062 66.0518C67.3474 65.9102 67.0265 65.7261 66.7433 65.4995V65.4854C66.7433 65.4382 66.7763 65.2729 66.8424 64.9897C66.9179 64.7065 67.0029 64.3714 67.0973 63.9844C67.2011 63.6068 67.305 63.215 67.4088 62.8091C67.5221 62.4032 67.6165 62.0539 67.692 61.7612C67.7298 61.6291 67.7675 61.5394 67.8053 61.4922C67.843 61.445 67.8855 61.4214 67.9327 61.4214C67.9894 61.4214 68.0224 61.4261 68.0318 61.4355C68.3056 61.6149 68.5605 61.7612 68.7965 61.8745C69.0419 61.9972 69.2968 62.0916 69.5611 62.1577C69.8349 62.2332 70.1323 62.2852 70.4532 62.3135C70.7742 62.3418 71.1471 62.356 71.5719 62.356C72.2327 62.356 72.818 62.2285 73.3277 61.9736C73.8375 61.7188 74.2765 61.3883 74.6446 60.9824C75.0128 60.5765 75.3054 60.1281 75.5226 59.6372C75.7491 59.1558 75.9049 58.679 75.9899 58.207C75.3102 58.6602 74.621 59.0283 73.9225 59.3115C73.2239 59.5947 72.5206 59.7363 71.8126 59.7363C70.8403 59.7363 70.0001 59.5381 69.2921 59.1416C68.5841 58.7546 67.9988 58.2306 67.5362 57.5698C67.0737 56.909 66.7291 56.1538 66.5025 55.3042C66.2854 54.4451 66.1769 53.5483 66.1769 52.6138C66.1769 51.8774 66.2429 51.1364 66.3751 50.3906C66.5167 49.6354 66.7197 48.9085 66.984 48.21C67.2578 47.5114 67.5929 46.86 67.9894 46.2559C68.3858 45.6423 68.8437 45.1089 69.3629 44.6558C69.8821 44.2026 70.458 43.8486 71.0904 43.5938C71.7229 43.3294 72.4121 43.1973 73.1578 43.1973C73.9697 43.1973 74.7202 43.3766 75.4093 43.7354C76.1079 44.0941 76.7403 44.5378 77.3067 45.0664C77.3256 44.8965 77.3398 44.7643 77.3492 44.6699C77.3587 44.5661 77.3823 44.4858 77.42 44.4292C77.4578 44.3726 77.5191 44.3301 77.6041 44.3018C77.6985 44.2734 77.8307 44.2404 78.0006 44.2026C78.1044 44.1838 78.2932 44.146 78.567 44.0894C78.8408 44.0233 79.1664 43.9478 79.5441 43.8628C79.9217 43.7778 80.337 43.6882 80.7901 43.5938C81.2433 43.4993 81.7011 43.4002 82.1637 43.2964C82.277 43.2681 82.3808 43.2539 82.4752 43.2539C82.7678 43.2539 82.9142 43.4427 82.9142 43.8203C82.9142 43.8675 82.9142 43.9147 82.9142 43.9619C82.9142 43.9997 82.9094 44.0422 82.9 44.0894L81.4415 57.4565Z" fill="#4D55F5"/>
<path d="M27.0266 56.6743C30.5338 60.2184 36.25 60.2484 39.7942 56.7412C43.3383 53.234 43.3683 47.5177 39.8611 43.9736C36.3539 40.4295 30.6377 40.3995 27.0935 43.9067C23.5494 47.4139 23.5194 53.1302 27.0266 56.6743Z" stroke="#2E2D2C" strokeWidth="3.5" stroke-miterlimit="10"/>
<path d="M30.7855 44.9222C30.0975 45.7815 29.5496 46.6849 29.1937 47.6482C28.8447 48.6096 28.6673 49.6172 28.7231 50.6144C28.7591 51.6124 29.0303 52.5932 29.4805 53.5068C29.9367 54.4221 30.5856 55.2544 31.3433 56.0567C30.3409 55.6024 29.4432 54.8604 28.7958 53.9133C28.6145 53.6876 28.4881 53.4283 28.3576 53.1705C28.2126 52.9183 28.1247 52.6422 28.0229 52.3698C27.8357 51.82 27.7406 51.2399 27.7039 50.6594C27.6591 49.4955 27.9223 48.324 28.472 47.3181C29.0113 46.3092 29.821 45.4597 30.7855 44.9222Z" fill="#1D1D1B"/>
<path d="M38.8061 50.6977C38.1692 50.9303 37.3388 50.2589 36.951 49.1976C36.5632 48.1364 36.7651 47.0876 37.402 46.855C38.0389 46.6223 38.8689 47.2941 39.2567 48.3553C39.6448 49.4163 39.443 50.465 38.8061 50.6977Z" fill="#2E2D2C"/>
<path d="M37.9991 52.1149C38.1158 52.2328 38.306 52.2338 38.4239 52.1171C38.5418 52.0004 38.5428 51.8102 38.4261 51.6923C38.3094 51.5744 38.1193 51.5734 38.0013 51.69C37.8834 51.8067 37.8824 51.9969 37.9991 52.1149Z" fill="#2E2D2C"/>
<path d="M56.8768 31.481C53.8257 31.8452 49.3861 34.0064 46.4242 37.886C44.8297 39.9741 44.0463 41.6879 43.6603 42.8738C44.7831 44.2432 45.5265 45.6726 45.628 46.8299C46.9897 40.3379 51.3964 32.9187 60.2755 32.1266C50.8742 25.858 38.3567 34.213 34.8077 38.003C35.6076 37.954 36.4386 38.0808 37.2693 38.3369C39.5199 36.1755 47.9535 29.3586 56.6545 31.0906C53.624 30.581 48.7556 31.4054 44.8214 34.2944C41.4799 36.7484 40.3362 38.8744 40.0093 39.6361C40.7423 40.1022 41.4425 40.6421 42.0855 41.2254C44.8353 37.525 50.0655 32.0876 56.8768 31.481Z" fill="#2E2D2C"/>
</svg>
