<svg width="16" height="16" viewBox="0 0 16 16" fill="none" xmlns="http://www.w3.org/2000/svg">
<g id="award-prize-svgrepo-com 1" clip-path="url(#clip0_602_28118)">
<g id="Group">
<g id="Group_2">
<path id="Vector" d="M7.70253 7.24072L8.21861 8.72159L9.82742 8.79246L8.49937 9.82693L9.03058 11.3787L7.70253 10.3533L6.37448 11.3787L6.90569 9.82693L5.57764 8.79246L7.18645 8.72159L7.70253 7.24072Z" fill="#F0C419"/>
<path id="Vector_2" d="M3.45305 4.77347H3.45278C2.57281 4.7732 1.85938 4.07854 1.85938 3.22173V2.18726C2.73962 2.18726 3.45305 2.88191 3.45305 3.73899V4.77347Z" fill="#F0C419"/>
<path id="Vector_3" d="M2.45051 7.16029C1.59606 7.36616 0.73227 6.85848 0.520867 6.02651L0.265625 5.02227C1.12008 4.81666 1.98411 5.32408 2.19554 6.15606L2.45051 7.16029Z" fill="#F0C419"/>
<path id="Vector_4" d="M2.79503 9.53998C2.06113 10.013 1.07227 9.81721 0.586489 9.10266L0 8.2399C0.733893 7.76687 1.72276 7.96266 2.20854 8.67748L2.79503 9.53998Z" fill="#F0C419"/>
<path id="Vector_5" d="M4.20445 10.8109C3.76434 11.5531 2.7898 11.8074 2.0275 11.3788L1.10742 10.8616C1.54753 10.1193 2.52207 9.8651 3.28437 10.2937L4.20445 10.8109Z" fill="#F0C419"/>
<path id="Vector_6" d="M2.92188 4.90119C3.36252 4.15921 4.18566 3.68153 5.01888 3.958L6.0242 4.29213C5.74025 5.10316 4.83452 5.53637 4.00158 5.25963L2.92188 4.90119Z" fill="#F0C419"/>
<path id="Vector_7" d="M2.83643 8.36919C3.68824 8.58461 4.55837 8.08703 4.77964 7.25764L5.04686 6.25627C4.19505 6.04085 3.32492 6.53843 3.10364 7.36808L2.83643 8.36919Z" fill="#F0C419"/>
<path id="Vector_8" d="M11.9526 3.77347H11.9529C12.8329 3.7732 13.5463 3.07854 13.5463 2.22173V1.18726C12.6661 1.18726 11.9526 1.88191 11.9526 2.73899V3.77347Z" fill="#F0C419"/>
<path id="Vector_9" d="M12.9551 6.16029C13.8095 6.36616 14.6733 5.85848 14.8847 5.02651L15.14 4.02227C14.2855 3.81666 13.4215 4.32408 13.21 5.15606L12.9551 6.16029Z" fill="#F0C419"/>
<path id="Vector_10" d="M12.6104 8.53998C13.3442 9.01301 14.3331 8.81721 14.8189 8.10266L15.4054 7.2399C14.6715 6.76687 13.6826 6.96266 13.1968 7.67748L12.6104 8.53998Z" fill="#F0C419"/>
<path id="Vector_11" d="M11.2007 10.8109C11.6408 11.5531 12.6153 11.8074 13.3776 11.3788L14.2977 10.8616C13.8576 10.1193 12.8831 9.8651 12.1208 10.2937L11.2007 10.8109Z" fill="#F0C419"/>
<path id="Vector_12" d="M12.4837 4.90119C12.043 4.15921 11.2199 3.68153 10.3867 3.958L9.38135 4.29213C9.66529 5.10316 10.571 5.53637 11.404 5.25963L12.4837 4.90119Z" fill="#F0C419"/>
<path id="Vector_13" d="M12.5693 8.36919C11.7175 8.58461 10.8474 8.08703 10.6261 7.25764L10.3589 6.25627C11.2107 6.04085 12.0808 6.53843 12.3021 7.36808L12.5693 8.36919Z" fill="#F0C419"/>
</g>
<g id="Group_3">
<path id="Vector_14" d="M5.31201 12.1545C5.25066 12.1545 5.18904 12.1339 5.13909 12.092C2.84528 10.172 2.32761 8.17644 2.29734 6.84067C2.2612 5.24318 2.90663 3.71783 4.06791 2.65568C4.17469 2.55818 4.34283 2.5631 4.4432 2.66704C4.54361 2.77128 4.53855 2.93496 4.43153 3.03273C3.37999 3.99454 2.79564 5.37841 2.82858 6.82928C2.85648 8.05981 3.33988 9.90402 5.48523 11.6999C5.59653 11.793 5.60926 11.9562 5.51367 12.0645C5.46104 12.124 5.38666 12.1545 5.31201 12.1545Z" fill="#B19046"/>
<path id="Vector_15" d="M10.0934 12.1545C10.1548 12.1545 10.2164 12.1339 10.2663 12.092C12.5602 10.172 13.0778 8.17644 13.1081 6.84067C13.1442 5.24318 12.4988 3.71783 11.3375 2.65568C11.2307 2.55818 11.0626 2.5631 10.9622 2.66704C10.8618 2.77128 10.8669 2.93496 10.9739 3.03273C12.0254 3.99454 12.6098 5.37841 12.5769 6.82928C12.549 8.05981 12.0656 9.90402 9.9202 11.6999C9.80891 11.793 9.79618 11.9562 9.89177 12.0645C9.9444 12.124 10.0188 12.1545 10.0934 12.1545Z" fill="#B19046"/>
</g>
</g>
</g>
<defs>
<clipPath id="clip0_602_28118">
<rect width="15.4054" height="15" fill="white" transform="translate(0 0.170898)"/>
</clipPath>
</defs>
</svg>
