<svg width="25" height="25" viewBox="0 0 25 25" fill="none" xmlns="http://www.w3.org/2000/svg">
<g id="ban-svgrepo-com 3" clip-path="url(#clip0_632_30721)">
<path id="Vector" d="M12.9234 7.99113C12.9234 7.97986 12.9234 7.96734 12.9234 7.9542C12.9234 6.89628 12.6032 5.91285 12.0543 5.09281L12.0663 5.11222L4.64027 12.4613C5.45886 13.0059 6.46567 13.3302 7.54954 13.3302H7.56596H7.56533H7.58365C8.33023 13.3302 9.04018 13.1737 9.68128 12.8926L9.64844 12.9058C11.5901 12.0826 12.9253 10.2052 12.9253 8.01867C12.9253 8.00928 12.9253 7.99989 12.9253 7.9905V7.99176L12.9234 7.99113ZM3.08521 10.9095L10.5213 3.54976C9.70655 2.99325 8.69847 2.66085 7.61144 2.66085C7.59565 2.66085 7.57986 2.66085 7.5647 2.66085H7.56723C7.55523 2.66085 7.54133 2.66085 7.5268 2.66085C6.55031 2.66085 5.63698 2.92565 4.85439 3.38637L4.8784 3.37323C3.27154 4.31847 2.21104 6.02991 2.21104 7.98612C2.21104 9.07283 2.53822 10.0844 3.10037 10.9283L3.08773 10.9082L3.08521 10.9095ZM15.1278 7.99113V8.01304C15.1278 9.06345 14.9067 10.0619 14.5082 10.9664L14.5271 10.9189C13.3637 13.6482 10.6856 15.528 7.56407 15.528C4.44257 15.528 1.76448 13.6475 0.61997 10.9677L0.601653 10.9189C0.222046 10.0556 0.000976562 9.0503 0.000976562 7.99301C0.000976562 6.93572 0.222046 5.93038 0.620602 5.01895L0.601653 5.06715C1.76511 2.33785 4.4432 0.458008 7.5647 0.458008C10.6862 0.458008 13.3643 2.33847 14.5088 5.01832L14.5271 5.06715C14.9067 5.92162 15.1284 6.91819 15.1284 7.96609V7.99176V7.9905L15.1278 7.99113Z" fill="#353E6C"/>
</g>
<defs>
<clipPath id="clip0_632_30721">
<rect width="24.2162" height="24" fill="white" transform="translate(0 0.5)"/>
</clipPath>
</defs>
</svg>
