<svg width="15" height="16" viewBox="0 0 15 16" fill="none" xmlns="http://www.w3.org/2000/svg">
<g id="Secondary / Calendar">
<g id="Group 94">
<path id="Vector 61 (Stroke)" fill-rule="evenodd" clip-rule="evenodd" d="M10.9375 2.17896C11.1101 2.17896 11.25 2.31887 11.25 2.49146L11.25 3.74146C11.25 3.91404 11.1101 4.05396 10.9375 4.05396C10.7649 4.05396 10.625 3.91404 10.625 3.74146L10.625 2.49146C10.625 2.31887 10.7649 2.17896 10.9375 2.17896Z" fill="#BACCFD"/>
<path id="Vector 62 (Stroke)" fill-rule="evenodd" clip-rule="evenodd" d="M5.3125 2.17896C5.48509 2.17896 5.625 2.31887 5.625 2.49146L5.625 3.74146C5.625 3.91404 5.48509 4.05396 5.3125 4.05396C5.13991 4.05396 5 3.91404 5 3.74146L5 2.49146C5 2.31887 5.13991 2.17896 5.3125 2.17896Z" fill="#BACCFD"/>
<path id="Rectangle 24 (Stroke)" fill-rule="evenodd" clip-rule="evenodd" d="M1.875 5.61646C1.875 4.40833 2.85438 3.42896 4.0625 3.42896H11.5625C12.7706 3.42896 13.75 4.40833 13.75 5.61646V10.6165C13.75 11.8246 12.7706 12.804 11.5625 12.804H4.0625C2.85438 12.804 1.875 11.8246 1.875 10.6165V5.61646ZM4.0625 4.05396C3.19956 4.05396 2.5 4.75351 2.5 5.61646V10.6165C2.5 11.4794 3.19956 12.179 4.0625 12.179H11.5625C12.4254 12.179 13.125 11.4794 13.125 10.6165V5.61646C13.125 4.75351 12.4254 4.05396 11.5625 4.05396H4.0625Z" fill="#BACCFD"/>
<path id="Vector 65 (Stroke)" fill-rule="evenodd" clip-rule="evenodd" d="M1.875 6.24146C1.875 6.06887 2.01491 5.92896 2.1875 5.92896H13.4375C13.6101 5.92896 13.75 6.06887 13.75 6.24146C13.75 6.41404 13.6101 6.55396 13.4375 6.55396H2.1875C2.01491 6.55396 1.875 6.41404 1.875 6.24146Z" fill="#BACCFD"/>
<path id="Vector 66 (Stroke)" fill-rule="evenodd" clip-rule="evenodd" d="M3.75 8.11646C3.75 7.94387 3.88991 7.80396 4.0625 7.80396H5.3125C5.48509 7.80396 5.625 7.94387 5.625 8.11646C5.625 8.28904 5.48509 8.42896 5.3125 8.42896H4.0625C3.88991 8.42896 3.75 8.28904 3.75 8.11646Z" fill="#BACCFD"/>
<path id="Vector 69 (Stroke)" fill-rule="evenodd" clip-rule="evenodd" d="M3.75 10.6165C3.75 10.4439 3.88991 10.304 4.0625 10.304H5.3125C5.48509 10.304 5.625 10.4439 5.625 10.6165C5.625 10.789 5.48509 10.929 5.3125 10.929H4.0625C3.88991 10.929 3.75 10.789 3.75 10.6165Z" fill="#BACCFD"/>
<path id="Vector 67 (Stroke)" fill-rule="evenodd" clip-rule="evenodd" d="M6.875 8.11646C6.875 7.94387 7.01491 7.80396 7.1875 7.80396H8.4375C8.61009 7.80396 8.75 7.94387 8.75 8.11646C8.75 8.28904 8.61009 8.42896 8.4375 8.42896H7.1875C7.01491 8.42896 6.875 8.28904 6.875 8.11646Z" fill="#BACCFD"/>
<path id="Vector 70 (Stroke)" fill-rule="evenodd" clip-rule="evenodd" d="M6.875 10.6165C6.875 10.4439 7.01491 10.304 7.1875 10.304H8.4375C8.61009 10.304 8.75 10.4439 8.75 10.6165C8.75 10.789 8.61009 10.929 8.4375 10.929H7.1875C7.01491 10.929 6.875 10.789 6.875 10.6165Z" fill="#BACCFD"/>
<path id="Vector 68 (Stroke)" fill-rule="evenodd" clip-rule="evenodd" d="M10 8.11646C10 7.94387 10.1399 7.80396 10.3125 7.80396H11.5625C11.7351 7.80396 11.875 7.94387 11.875 8.11646C11.875 8.28904 11.7351 8.42896 11.5625 8.42896H10.3125C10.1399 8.42896 10 8.28904 10 8.11646Z" fill="#BACCFD"/>
<path id="Vector 71 (Stroke)" fill-rule="evenodd" clip-rule="evenodd" d="M10 10.6165C10 10.4439 10.1399 10.304 10.3125 10.304H11.5625C11.7351 10.304 11.875 10.4439 11.875 10.6165C11.875 10.789 11.7351 10.929 11.5625 10.929H10.3125C10.1399 10.929 10 10.789 10 10.6165Z" fill="#BACCFD"/>
</g>
</g>
</svg>
