<svg width="96" height="96" viewBox="0 0 96 96" fill="none" xmlns="http://www.w3.org/2000/svg">
<g id="in friendship button">
<g id="Rectangle" filter="url(#filter0_d_1311_10906)">
<rect x="10" y="10" width="56" height="56" rx="16" fill="#F8FAFF"/>
</g>
<g id="a-check">
<path id="Path" d="M35.4997 38C33.1988 38 31.333 35.3008 31.333 33V32.1667C31.333 29.8658 33.1988 28 35.4997 28C37.8005 28 39.6663 29.8658 39.6663 32.1667V33C39.6663 35.3008 37.8005 38 35.4997 38Z" fill="#1B1D21"/>
<path id="Path_2" d="M38 44.667C38 42.912 38.7783 41.342 40.005 40.2728C38.7533 39.9445 37.1983 39.667 35.5 39.667C33.1467 39.667 31.0592 40.1987 29.6883 40.6612C28.675 41.0037 28 41.9578 28 43.027V46.3337H38.245C38.0875 45.8053 38 45.2462 38 44.667Z" fill="#1B1D21"/>
<path id="Path_3" d="M42.1663 47.5116L39.3213 44.6666L40.4996 43.4883L42.1663 45.1549L46.333 40.9883L47.5113 42.1666L42.1663 47.5116Z" fill="#1B1D21"/>
</g>
</g>
<defs>
<filter id="filter0_d_1311_10906" x="0" y="0" width="96" height="96" filterUnits="userSpaceOnUse" color-interpolation-filters="sRGB">
<feFlood flood-opacity="0" result="BackgroundImageFix"/>
<feColorMatrix in="SourceAlpha" type="matrix" values="0 0 0 0 0 0 0 0 0 0 0 0 0 0 0 0 0 0 127 0" result="hardAlpha"/>
<feOffset dx="10" dy="10"/>
<feGaussianBlur stdDeviation="10"/>
<feComposite in2="hardAlpha" operator="out"/>
<feColorMatrix type="matrix" values="0 0 0 0 0.34902 0 0 0 0 0.380392 0 0 0 0 0.976471 0 0 0 0.1 0"/>
<feBlend mode="normal" in2="BackgroundImageFix" result="effect1_dropShadow_1311_10906"/>
<feBlend mode="normal" in="SourceGraphic" in2="effect1_dropShadow_1311_10906" result="shape"/>
</filter>
</defs>
</svg>
