<svg width="60" height="45" viewBox="0 0 110 91" fill="none" xmlns="http://www.w3.org/2000/svg">
<g id="in friendship button">
<g id="Rectangle" filter="url(#filter0_d_602_27857)">
<rect x="10" y="10.25" width="100" height="70" rx="16" fill="#F8FAFF"/>
</g>
<g id="a-check">
<path id="Path" d="M42.5002 35.25C40.1993 35.25 38.3335 32.5508 38.3335 30.25V29.4167C38.3335 27.1158 40.1993 25.25 42.5002 25.25C44.801 25.25 46.6668 27.1158 46.6668 29.4167V30.25C46.6668 32.5508 44.801 35.25 42.5002 35.25Z" fill="#1B1D21"/>
<path id="Path_2" d="M45 41.9167C45 40.1617 45.7783 38.5917 47.005 37.5226C45.7533 37.1942 44.1983 36.9167 42.5 36.9167C40.1467 36.9167 38.0592 37.4484 36.6883 37.9109C35.675 38.2534 35 39.2076 35 40.2767V43.5834H45.245C45.0875 43.0551 45 42.4959 45 41.9167Z" fill="#1B1D21"/>
<path id="Path_3" d="M49.1668 44.7616L46.3218 41.9166L47.5001 40.7383L49.1668 42.4049L53.3334 38.2383L54.5118 39.4166L49.1668 44.7616Z" fill="#1B1D21"/>
</g>
</g>
<defs>
<filter id="filter0_d_602_27857" x="0" y="0.25" width="109.176" height="90" filterUnits="userSpaceOnUse" color-interpolation-filters="sRGB">
<feFlood flood-opacity="0" result="BackgroundImageFix"/>
<feColorMatrix in="SourceAlpha" type="matrix" values="0 0 0 0 0 0 0 0 0 0 0 0 0 0 0 0 0 0 127 0" result="hardAlpha"/>
<feOffset dx="10" dy="10"/>
<feGaussianBlur stdDeviation="10"/>
<feComposite in2="hardAlpha" operator="out"/>
<feColorMatrix type="matrix" values="0 0 0 0 0.34902 0 0 0 0 0.380392 0 0 0 0 0.976471 0 0 0 0.05 0"/>
<feBlend mode="normal" in2="BackgroundImageFix" result="effect1_dropShadow_602_27857"/>
<feBlend mode="normal" in="SourceGraphic" in2="effect1_dropShadow_602_27857" result="shape"/>
</filter>
</defs>
</svg>
