<svg width="24" height="24" viewBox="0 0 24 24" fill="none" xmlns="http://www.w3.org/2000/svg">
<g id="Iconly/Two-tone/Game">
<g id="Game">
<path id="Stroke 1" d="M8.84819 12.314V16.059" stroke="white" strokeWidth="1.5" strokeLinecap="round" strokeLinejoin="round"/>
<path id="Stroke 2" d="M10.7586 14.1868H6.9375" stroke="white" strokeWidth="1.5" strokeLinecap="round" strokeLinejoin="round"/>
<path id="Stroke 3" d="M15.3665 12.428H15.2595" stroke="white" strokeWidth="1.5" strokeLinecap="round" strokeLinejoin="round"/>
<path id="Stroke 4" d="M17.18 16.0027H17.073" stroke="white" strokeWidth="1.5" strokeLinecap="round" strokeLinejoin="round"/>
<path id="Stroke 5" opacity="0.4" d="M8.07227 2V2C8.07227 2.74048 8.68475 3.34076 9.44029 3.34076H10.4968C11.6624 3.34492 12.6065 4.27026 12.6118 5.41266V6.08771" stroke="white" strokeWidth="1.5" strokeLinecap="round" strokeLinejoin="round"/>
<path id="Stroke 7" fillRule="evenodd" clipRule="evenodd" d="M16.4283 21.9625C13.4231 22.0134 10.473 22.0113 7.57275 21.9625C4.3535 21.9625 2 19.6663 2 16.5112V11.8616C2 8.70651 4.3535 6.41029 7.57275 6.41029C10.4889 6.36044 13.4411 6.36148 16.4283 6.41029C19.6476 6.41029 22 8.70755 22 11.8616V16.5112C22 19.6663 19.6476 21.9625 16.4283 21.9625Z" stroke="#FFFFFF" strokeWidth="1.5" strokeLinecap="round" strokeLinejoin="round"/>
</g>
</g>
</svg>
