<svg width="124" height="126" viewBox="0 0 124 126" fill="none" xmlns="http://www.w3.org/2000/svg">
<g id="Group">
<path id="Vector" d="M62 124.073C96.2417 124.073 124 96.3143 124 62.0726C124 27.831 96.2417 0.0726318 62 0.0726318C27.7583 0.0726318 0 27.831 0 62.0726C0 96.3143 27.7583 124.073 62 124.073Z" fill="#868CFF"/>
<path id="Vector_2" d="M62 101.526C40.2076 101.526 22.5468 83.8651 22.5468 62.0726C22.5468 40.2802 40.2076 22.6194 62 22.6194C72.8912 22.6194 82.7533 27.0359 89.8975 34.1751L105.84 18.233C94.6187 7.01204 79.1162 0.0726318 62 0.0726318C27.7576 0.0726318 0 27.8302 0 62.0726C0 96.315 27.7576 124.073 62 124.073C79.1212 124.073 94.6187 117.133 105.845 105.917L89.9025 89.9751C82.7533 97.1094 72.8912 101.526 62 101.526Z" fill="#5961F9" fill-opacity="0.7"/>
<path id="Vector_3" d="M101.453 62.0728H81.7237C81.7237 51.1816 72.8908 42.3438 61.9946 42.3438C51.0984 42.3438 42.2705 51.1766 42.2705 62.0728C42.2705 67.3786 44.3688 72.1897 47.7811 75.7418L47.7661 75.7568L72.1914 100.182L72.1964 100.187C89.0428 95.6907 101.453 80.3331 101.453 62.0728Z" fill="#5961F9" fill-opacity="0.7"/>
<path id="Vector_4" d="M123.995 62.0726H101.448C101.448 80.3329 89.033 95.6905 72.1965 100.187L89.6075 117.598C109.991 107.441 123.995 86.393 123.995 62.0726Z" fill="#868CFF"/>
<path id="Vector_5" d="M62 123.363C27.8775 123.363 0.199839 95.795 0.00499599 61.7175C0.00499599 61.8374 0 61.9523 0 62.0722C0 96.3146 27.7576 124.072 62 124.072C96.2424 124.072 124 96.3146 124 62.0722C124 61.9523 123.995 61.8374 123.995 61.7175C123.8 95.795 96.1175 123.363 62 123.363Z" fill="#5961F9" fill-opacity="0.1"/>
<path id="Vector_6" d="M72.2024 100.187L72.7519 100.736C89.3086 96.0602 101.454 80.8425 101.454 62.7771V62.0726C101.454 80.3329 89.0388 95.6905 72.2024 100.187Z" fill="white" fill-opacity="0.05"/>
<g id="Group_2">
<path id="Vector_7" d="M112.726 56.4351H61.9973C58.8848 56.4351 56.3618 58.958 56.3618 62.0705C56.3618 65.183 58.8848 67.706 61.9973 67.706H112.721C115.834 67.706 118.357 65.183 118.357 62.0705C118.362 58.958 115.839 56.4351 112.726 56.4351Z" fill="#5961F9" fill-opacity="0.7"/>
<path id="Vector_8" opacity="0.5" d="M112.726 56.4351H61.9973C58.8848 56.4351 56.3618 58.958 56.3618 62.0705C56.3618 65.183 58.8848 67.706 61.9973 67.706H112.721C115.834 67.706 118.357 65.183 118.357 62.0705C118.362 58.958 115.839 56.4351 112.726 56.4351Z" fill="#444DFF"/>
</g>
<g id="Group_3">
<g id="Group_4">
<path id="Vector_9" d="M11.27 66.2994C13.6043 66.2994 15.4966 64.4071 15.4966 62.0728C15.4966 59.7385 13.6043 57.8462 11.27 57.8462C8.93577 57.8462 7.04346 59.7385 7.04346 62.0728C7.04346 64.4071 8.93577 66.2994 11.27 66.2994Z" fill="#444DFF"/>
<path id="Vector_10" d="M61.9994 15.5704C64.3337 15.5704 66.226 13.6781 66.226 11.3438C66.226 9.0095 64.3337 7.11719 61.9994 7.11719C59.6651 7.11719 57.7728 9.0095 57.7728 11.3438C57.7728 13.6781 59.6651 15.5704 61.9994 15.5704Z" fill="#444DFF"/>
<path id="Vector_11" d="M61.9992 117.024C64.3335 117.024 66.2258 115.131 66.2258 112.797C66.2258 110.463 64.3335 108.571 61.9992 108.571C59.6649 108.571 57.7726 110.463 57.7726 112.797C57.7726 115.131 59.6649 117.024 61.9992 117.024Z" fill="#444DFF"/>
<path id="Vector_12" d="M26.0686 30.4284C28.4029 30.4284 30.2952 28.5361 30.2952 26.2018C30.2952 23.8675 28.4029 21.9752 26.0686 21.9752C23.7343 21.9752 21.842 23.8675 21.842 26.2018C21.842 28.5361 23.7343 30.4284 26.0686 30.4284Z" fill="#444DFF"/>
<path id="Vector_13" d="M26.0686 102.23C28.4029 102.23 30.2952 100.338 30.2952 98.0037C30.2952 95.6694 28.4029 93.7771 26.0686 93.7771C23.7343 93.7771 21.842 95.6694 21.842 98.0037C21.842 100.338 23.7343 102.23 26.0686 102.23Z" fill="#444DFF"/>
</g>
<path id="Vector_14" d="M97.9314 102.23C100.266 102.23 102.158 100.338 102.158 98.0034C102.158 95.6692 100.266 93.7769 97.9314 93.7769C95.5971 93.7769 93.7048 95.6692 93.7048 98.0034C93.7048 100.338 95.5971 102.23 97.9314 102.23Z" fill="#444DFF"/>
<path id="Vector_15" d="M62.0002 57.1418H112.724C115.717 57.1418 118.165 59.4799 118.34 62.4275C118.345 62.3076 118.36 62.1927 118.36 62.0728C118.36 58.9603 115.837 56.4374 112.724 56.4374H62.0002C58.8877 56.4374 56.3647 58.9603 56.3647 62.0728C56.3647 62.1927 56.3697 62.3076 56.3847 62.4275C56.5596 59.4799 59.0026 57.1418 62.0002 57.1418Z" fill="white" fill-opacity="0.2"/>
<path id="Vector_16" d="M118.34 62.4226C118.155 65.3652 115.712 67.7083 112.724 67.7083H62.0002C59.0076 67.7083 56.5596 65.3702 56.3847 62.4226C56.3697 62.5425 56.3647 62.6574 56.3647 62.7723C56.3647 65.8848 58.8877 68.4078 62.0002 68.4078H112.724C115.837 68.4078 118.36 65.8848 118.36 62.7723C118.36 62.6574 118.355 62.5425 118.34 62.4226Z" fill="#5961F9" fill-opacity="0.2"/>
<path id="Vector_17" d="M61.9993 23.3237C72.8905 23.3237 82.7526 27.7401 89.8968 34.8794L106.184 18.5825C106.064 18.4626 105.949 18.3427 105.834 18.2278L89.8968 34.1699C82.7526 27.0307 72.8905 22.6142 61.9993 22.6142C40.2069 22.6142 22.5461 40.275 22.5461 62.0674C22.5461 62.1873 22.5511 62.3022 22.5511 62.4221C22.741 40.7946 40.3268 23.3237 61.9993 23.3237Z" fill="#5961F9" fill-opacity="0.1"/>
<path id="Vector_18" d="M62 125.073C96.2417 125.073 124 97.3143 124 63.0726C124 28.831 96.2417 1.07263 62 1.07263C27.7583 1.07263 0 28.831 0 63.0726C0 97.3143 27.7583 125.073 62 125.073Z" fill="url(#paint0_radial_690_28605)"/>
</g>
</g>
<defs>
<radialGradient id="paint0_radial_690_28605" cx="0" cy="0" r="1" gradientUnits="userSpaceOnUse" gradientTransform="translate(18.1819 19.1133) scale(123.786)">
<stop stop-color="white" stop-opacity="0.1"/>
<stop offset="1" stop-color="white" stop-opacity="0"/>
</radialGradient>
</defs>
</svg>
