<svg width="13" height="13" viewBox="0 0 13 13" fill="none" xmlns="http://www.w3.org/2000/svg">
<g id="delete-svgrepo-com 3" clip-path="url(#clip0_632_30701)">
<g id="Group">
<path id="Vector" d="M8.79507 1.52935H6.51601V0.5H3.42115V1.52935H1.14209V3.15463H8.79507V1.52935ZM4.24111 1.31264H5.69605V1.52935H4.24111V1.31264Z" fill="#353E6C"/>
<path id="Vector_2" d="M8.06681 6.30525L8.22151 3.96729H1.71558L2.23532 11.8228H5.35588C4.9497 11.2521 4.71079 10.5566 4.71079 9.80665C4.71079 7.93378 6.20022 6.39922 8.06681 6.30525Z" fill="#353E6C"/>
<path id="Vector_3" d="M8.24839 7.11328C6.74988 7.11328 5.53076 8.32152 5.53076 9.80662C5.53076 11.2917 6.74988 12.5 8.24839 12.5C9.7469 12.5 10.966 11.2917 10.966 9.80662C10.966 8.32149 9.7469 7.11328 8.24839 7.11328ZM9.72913 10.6995L9.14934 11.2741L8.24839 10.3812L7.34744 11.2741L6.76765 10.6995L7.66859 9.80662L6.76765 8.91371L7.34744 8.3391L8.24839 9.232L9.14934 8.3391L9.72913 8.91371L8.82818 9.80662L9.72913 10.6995Z" fill="#353E6C"/>
</g>
</g>
<defs>
<clipPath id="clip0_632_30701">
<rect width="12.1081" height="12" fill="white" transform="translate(0 0.5)"/>
</clipPath>
</defs>
</svg>
