<svg xmlns="http://www.w3.org/2000/svg" xmlns:xlink="http://www.w3.org/1999/xlink" viewBox="0 0 32 40" version="1.1" xml:space="preserve" style="" x="0px" y="0px" fill-rule="evenodd" clip-rule="evenodd" stroke-linecap="round" stroke-linejoin="round" stroke-miterlimit="1"><rect x="0" y="0" width="32" height="32" style="" fill="none"/><clipPath id="a"><rect x="0" y="0" width="32" height="32"/></clipPath><g clip-path="url(#a)"><circle cx="10" cy="10" r="3" style="" fill="none" stroke="#000" stroke-width="2px"/><circle cx="20" cy="12" r="4" style="" fill="none" stroke="#000" stroke-width="2px"/><path d="M19.985,26l-8.985,0c0,-4.147 0.057,-7 9,-7c2.161,0 3.803,0.173 5.051,0.491" style="" fill="none" stroke="#000" stroke-width="2px"/><path d="M8,21l-5,0c0,-2.962 0.045,-5 7,-5c1.439,0 2.582,0.09 3.49,0.259" style="" fill="none" stroke="#000" stroke-width="2px"/><path d="M29,24l-4,4" style="" fill="none" stroke="#000" stroke-width="2px" stroke-miterlimit="100"/><path d="M25,24l4,4" style="" fill="none" stroke="#000" stroke-width="2px" stroke-miterlimit="100"/></g><text x="0" y="47" fill="#000000" font-size="5px" font-weight="bold" font-family="'Helvetica Neue', Helvetica, Arial-Unicode, Arial, Sans-serif">Created by Raphaël Buquet</text><text x="0" y="52" fill="white" font-size="5px" font-weight="bold" font-family="'Helvetica Neue', Helvetica, Arial-Unicode, Arial, Sans-serif">from the Noun Project</text></svg>