<svg width="13" height="15" viewBox="0 0 13 15" fill="none" xmlns="http://www.w3.org/2000/svg">
<g id="alarm-svgrepo-com 1" clip-path="url(#clip0_602_28102)">
<g id="Group">
<g id="Group_2">
<g id="Group_3">
<path id="Vector" d="M10.5837 11.7539H10.5527V11.0921C10.5527 10.6781 10.245 10.3413 9.86688 10.3413H9.54907V6.73148C9.54907 4.82753 8.13407 3.27856 6.39479 3.27856C4.65552 3.27856 3.24051 4.82753 3.24051 6.73148V10.3413H2.92271C2.54453 10.3413 2.23689 10.6781 2.23689 11.0921V11.7539H2.20584C1.82766 11.7539 1.52002 12.0907 1.52002 12.5046V13.4804C1.52002 13.6537 1.64839 13.7943 1.80678 13.7943H10.9829C11.1412 13.7943 11.2696 13.6537 11.2696 13.4804V12.5046C11.2696 12.0907 10.9619 11.7539 10.5837 11.7539ZM3.814 6.73148C3.814 5.1737 4.97175 3.90638 6.39477 3.90638C7.81781 3.90638 8.97553 5.17373 8.97553 6.73148V10.3413H6.68153V8.60048L7.59448 8.93363C7.6241 8.94444 7.6547 8.94974 7.68513 8.94974C7.74458 8.94974 7.80338 8.92951 7.85281 8.89049C7.92757 8.83151 7.97191 8.73673 7.97191 8.63586V6.28159C7.97191 6.18069 7.9276 6.08595 7.85281 6.02697C7.77805 5.96796 7.68188 5.95188 7.59448 5.98382L6.39477 6.42154L5.19506 5.98376C5.10766 5.95188 5.01151 5.9679 4.93673 6.02691C4.86197 6.08589 4.81763 6.18067 4.81763 6.28154V8.63581C4.81763 8.7367 4.86194 8.83145 4.93673 8.89043C4.98619 8.92945 5.04499 8.94969 5.10441 8.94969C5.13484 8.94969 5.16546 8.94438 5.19506 8.93358L6.10801 8.60042V10.3413H3.81398V6.73148H3.814ZM6.68153 7.93871V7.81443V6.97864L7.39842 6.71707V8.2003L6.68153 7.93871ZM6.10801 6.97864V7.81443V7.93871L5.39112 8.20028V6.71704L6.10801 6.97864ZM2.81035 11.0921C2.81035 11.0243 2.86073 10.9691 2.92268 10.9691H9.86688C9.92883 10.9691 9.97921 11.0243 9.97921 11.0921V11.7539H2.81035V11.0921ZM10.6961 13.1665H10.6961H2.09348V12.5047C2.09348 12.4369 2.14387 12.3817 2.20581 12.3817H10.5838C10.6457 12.3817 10.6961 12.4369 10.6961 12.5047V13.1665H10.6961Z" fill="#CD3A3A"/>
<path id="Vector_2" d="M2.66679 6.71576C2.66679 6.5424 2.5384 6.40186 2.38004 6.40186H0.286757C0.128391 6.40186 0 6.5424 0 6.71576C0 6.88912 0.128391 7.02967 0.286757 7.02967H2.38006C2.53843 7.02967 2.66679 6.88915 2.66679 6.71576Z" fill="#CD3A3A"/>
<path id="Vector_3" d="M12.5026 6.40186H10.4093C10.251 6.40186 10.1226 6.5424 10.1226 6.71576C10.1226 6.88912 10.251 7.02967 10.4093 7.02967H12.5026C12.661 7.02967 12.7894 6.88912 12.7894 6.71576C12.7894 6.5424 12.661 6.40186 12.5026 6.40186Z" fill="#CD3A3A"/>
<path id="Vector_4" d="M6.39467 1.80323C6.55303 1.80323 6.68142 1.66269 6.68142 1.48933V0.861514C6.68142 0.688154 6.55303 0.547607 6.39467 0.547607C6.2363 0.547607 6.10791 0.688154 6.10791 0.861514V1.48933C6.10791 1.66271 6.2363 1.80323 6.39467 1.80323Z" fill="#CD3A3A"/>
<path id="Vector_5" d="M1.61998 4.06039L2.11663 4.3743C2.16179 4.40282 2.21108 4.41638 2.25976 4.41638C2.35885 4.41638 2.45524 4.36011 2.50835 4.2594C2.58756 4.10926 2.54055 3.91728 2.40339 3.83062L1.90673 3.51672C1.7696 3.43004 1.5942 3.48147 1.51504 3.63162C1.43583 3.78176 1.48284 3.97374 1.61998 4.06039Z" fill="#CD3A3A"/>
<path id="Vector_6" d="M8.25866 3.18183C8.30382 3.21038 8.35311 3.22391 8.40179 3.22391C8.50088 3.22391 8.59727 3.16764 8.65038 3.06693L9.69702 1.08246C9.77623 0.932313 9.72922 0.740332 9.59206 0.65368C9.45492 0.567 9.27955 0.618434 9.20036 0.768578L8.1537 2.75305C8.07452 2.90314 8.1215 3.09512 8.25866 3.18183Z" fill="#CD3A3A"/>
<path id="Vector_7" d="M4.13879 3.06695C4.1919 3.16765 4.28826 3.22393 4.38738 3.22393C4.43601 3.22393 4.48535 3.21037 4.53051 3.18185C4.66767 3.09517 4.71465 2.90319 4.63547 2.75307L3.58883 0.768596C3.50962 0.618424 3.33427 0.566991 3.19714 0.653698C3.05998 0.740378 3.01299 0.932358 3.09218 1.08248L4.13879 3.06695Z" fill="#CD3A3A"/>
<path id="Vector_8" d="M10.5297 4.41639C10.5783 4.41639 10.6277 4.40282 10.6728 4.37431L11.1695 4.0604C11.3066 3.97372 11.3536 3.78174 11.2745 3.63162C11.1953 3.48145 11.0199 3.43004 10.8828 3.51672L10.3861 3.83063C10.2489 3.91731 10.202 4.10929 10.2811 4.25941C10.3342 4.36009 10.4306 4.41639 10.5297 4.41639Z" fill="#CD3A3A"/>
</g>
</g>
</g>
</g>
<defs>
<clipPath id="clip0_602_28102">
<rect width="12.7892" height="14" fill="white" transform="translate(0 0.170898)"/>
</clipPath>
</defs>
</svg>
