<?xml version="1.0" ?>



<!DOCTYPE svg  PUBLIC '-//W3C//DTD SVG 1.1//EN'  'http://www.w3.org/Graphics/SVG/1.1/DTD/svg11.dtd'>



<!-- Uploaded to: SVG Repo, www.svgrepo.com, Generator: SVG Repo Mixer Tools -->

<svg fill="#808080" width="800px" height="800px" viewBox="0 0 2.33333 2.33333" style="shape-rendering:geometricPrecision; text-rendering:geometricPrecision; image-rendering:optimizeQuality; fillRule:evenodd; clipRule:evenodd" xml:space="preserve" xmlns="http://www.w3.org/2000/svg" xmlns:xlink="http://www.w3.org/1999/xlink">



<defs>



<style type="text/css">

   <![CDATA[

    .fil0 {fill:black}

   ]]>

  </style>



</defs>



<g id="Layer_x0020_1">



<path class="#808080" d="M0.359122 1.83685c-0.0144764,0 -0.0248937,-0.0149685 -0.0194252,-0.0291417l0.144303 -0.327457c-0.109618,-0.124878 -0.170669,-0.285831 -0.170669,-0.453724 0,-0.378795 0.308035,-0.686827 0.686831,-0.686827 0.378795,0 0.686827,0.308031 0.686827,0.686827 0,0.378799 -0.308031,0.686831 -0.686827,0.686831 -0.104067,0 -0.203969,-0.0222008 -0.298319,-0.0679882l-0.333008 0.188705c-0.00277559,0.00138583 -0.00555118,0.00277559 -0.0097126,0.00277559zm0.641039 -1.45691c-0.356594,0 -0.646591,0.289992 -0.646591,0.646587 0,0.160953 0.0596654,0.314972 0.16789,0.434299 0.00472441,0.00496063 0.0119173,0.0157717 0.00693701,0.0263622l-0.124878 0.283059 0.291386 -0.163728c0.00832283,-0.00277165 0.0180394,-0.00138583 0.0249764,0.00416535 0.0887992,0.0430118 0.183154,0.0638268 0.281669,0.0638268 0.356594,0 0.646587,-0.289996 0.646587,-0.646591 -0.00138976,-0.357988 -0.291382,-0.64798 -0.647976,-0.64798zm-0.507839 1.10864l0 0z"/>



<path class="#808080" d="M1.32623 0.830882l-0.652138 0c-0.025752,0 -0.025752,-0.0388465 0,-0.0388465l0.652138 0c0.025752,0 0.025752,0.0388465 0,0.0388465z"/>



<path class="#808080" d="M1.46776 1.04734l-0.935197 0c-0.025752,0 -0.025752,-0.0388504 0,-0.0388504l0.936583 0c0.0261614,0 0.0255945,0.0388504 -0.00138583,0.0388504z"/>



<path class="#808080" d="M1.32623 1.26102l-0.652138 0c-0.025752,0 -0.025752,-0.0388504 0,-0.0388504l0.652138 -3.93701e-006c0.0257559,0 0.025752,0.0388543 0,0.0388543z"/>



<path class="#808080" d="M1.97837 1.99364c-0.00277559,0 -0.00693701,-0.00138583 -0.0097126,-0.00277559l-0.252535 -0.142913c-0.0707638,0.0332992 -0.147079,0.0513386 -0.227551,0.0513386 -0.160953,0 -0.312197,-0.0721496 -0.413484,-0.199803 -0.00947244,-0.0122795 -0.00188976,-0.0295118 0.0124882,-0.0319134 0.319134,-0.0430118 0.560563,-0.317748 0.560563,-0.641039 0,-0.0471772 -0.00554724,-0.0929646 -0.013874,-0.13598 -0.00287008,-0.0145945 0.0104291,-0.0289291 0.0249764,-0.0235866 0.215067,0.0721496 0.36076,0.274728 0.36076,0.502287 0,0.129039 -0.0471772,0.252531 -0.131815,0.348272l0.109614 0.24698c0.00625591,0.0132638 -0.00309449,0.0291339 -0.0194291,0.0291339zm-0.24837 -0.183154l0.205358 0.116551 -0.090189 -0.203965c-0.0028622,-0.0060748 -0.00187008,-0.0161693 0.00416142,-0.0221969 0,-0.00572835 0.129043,-0.122972 0.129043,-0.331622 0,-0.198417 -0.119331,-0.376024 -0.299709,-0.452335 0.0569567,0.370201 -0.187083,0.714969 -0.55085,0.783957 0.0929646,0.101291 0.222004,0.158181 0.36076,0.158181 0.076311,0 0.148465,-0.0166496 0.215063,-0.048563 0.0124882,-0.00694882 0.020815,-0.00417323 0.0263622,-7.87402e-006zm-0.0249724 0.0305236l0 0zm0 0c0,0 0,0 0,0zm0.140142 -0.129039c0,0 0,0 0,0zm0 0c0,0 0,0 0,0z"/>



<path class="#808080" d="M1.73833 1.22494l-0.0943504 0c-0.025752,0 -0.025752,-0.0388504 0,-0.0388504l0.0943504 -3.93701e-006c0.0263701,0 0.0247953,0.0388543 0,0.0388543z"/>



<path class="#808080" d="M1.84656 1.39006l-0.274732 0c-0.025748,0 -0.025748,-0.0388465 0,-0.0388465l0.274732 -3.93701e-006c0.0257559,0 0.025748,0.0388504 0,0.0388504z"/>



<path class="#808080" d="M1.73833 1.55379l-0.305256 0c-0.025752,0 -0.025752,-0.0388504 0,-0.0388504l0.305256 0c0.0263701,0 0.0247953,0.0388504 0,0.0388504z"/>



</g>



</svg>