<svg width="210" height="29" viewBox="0 0 210 29" fill="none" xmlns="http://www.w3.org/2000/svg">
<g id="Group 428">
<g id="Group 262">
<g id="Group 152">
<g id="g1231">
<path id="path1192" fill-rule="evenodd" clip-rule="evenodd" d="M111.204 3.60649C110.97 3.88459 110.836 4.31262 110.836 4.86882V24.6526C110.836 25.2088 110.97 25.6368 111.212 25.9052L111.276 25.9645L121.279 14.8792V14.6301L111.267 3.54724L111.204 3.60649Z" fill="url(#paint0_linear_690_28627)"/>
<path id="path1203" fill-rule="evenodd" clip-rule="evenodd" d="M124.609 18.59L121.272 14.8913V14.6326L124.61 10.9338L124.682 10.9834L128.63 13.4694C129.76 14.1755 129.76 15.3387 128.63 16.0545L124.682 18.5405C124.681 18.5405 124.609 18.59 124.609 18.59Z" fill="url(#paint1_linear_690_28627)"/>
<path id="path1210" fill-rule="evenodd" clip-rule="evenodd" d="M124.679 18.5407L121.27 14.7622L111.203 25.9176C111.571 26.3553 112.19 26.4049 112.881 25.9769L124.679 18.5407Z" fill="url(#paint2_linear_690_28627)"/>
<path id="path1223" fill-rule="evenodd" clip-rule="evenodd" d="M124.679 10.9837L112.881 3.55723C112.191 3.11953 111.571 3.17878 111.203 3.61648L121.269 14.761L124.679 10.9837Z" fill="url(#paint3_linear_690_28627)"/>
<path id="path1225" opacity="0.2" fill-rule="evenodd" clip-rule="evenodd" d="M124.608 18.46L112.891 25.8369C112.236 26.254 111.653 26.225 111.276 25.8465L111.213 25.9167L111.276 25.9759C111.653 26.3532 112.236 26.3834 112.891 25.9662L124.688 18.5398L124.608 18.46Z" fill="black"/>
<path id="path1227" opacity="0.12" fill-rule="evenodd" clip-rule="evenodd" d="M128.627 15.9254L124.599 18.4609L124.671 18.5407L128.618 16.0548C129.184 15.6969 129.462 15.2301 129.462 14.7622C129.426 15.1902 129.139 15.5977 128.627 15.9254Z" fill="black"/>
<path id="path1229" opacity="0.25" fill-rule="evenodd" clip-rule="evenodd" d="M112.882 3.68667L128.627 13.5991C129.139 13.9171 129.426 14.3343 129.47 14.7623C129.47 14.2956 129.192 13.8276 128.627 13.4697L112.882 3.5573C111.751 2.84149 110.836 3.43759 110.836 4.8692V4.99858C110.836 3.56697 111.751 2.98054 112.882 3.68667Z" fill="#5961F9" fill-opacity="0.4"/>
</g>
<g id="g1237">
<path id="path1233" fill-rule="evenodd" clip-rule="evenodd" d="M132.94 14.1344C132.94 10.9653 135.343 8.38501 138.203 8.38501C139.784 8.38501 140.909 9.073 141.758 9.96897L140.759 11.0765C140.152 10.4454 139.329 9.95567 138.202 9.95567C136.114 9.95567 134.481 11.8189 134.481 14.1332C134.481 16.4475 136.114 18.3132 138.201 18.3132C139.555 18.3132 140.326 17.711 140.82 17.1621C141.225 16.7135 141.49 16.069 141.592 15.1851H138.203V13.6181H142.974C143.024 13.8986 143.05 14.2348 143.05 14.5987C143.05 15.7752 142.759 17.2346 141.822 18.2733C140.909 19.3252 139.746 19.8862 138.202 19.8862C135.341 19.8862 132.938 17.3084 132.938 14.1368L132.94 14.1344ZM146.906 12.4803C145.059 12.4803 143.551 14.0377 143.551 16.1815C143.551 18.3144 145.058 19.8826 146.906 19.8826C148.755 19.8826 150.259 18.312 150.259 16.1803C150.259 14.0365 148.753 12.4791 146.906 12.4803ZM146.906 18.4268C145.895 18.4268 145.021 17.5018 145.021 16.1827C145.021 14.8502 145.894 13.9385 146.906 13.9385C147.918 13.9385 148.791 14.849 148.791 16.1827C148.791 17.5006 147.919 18.4268 146.906 18.4268ZM154.222 12.4803C152.375 12.4803 150.869 14.0377 150.869 16.1815C150.869 18.3144 152.375 19.8826 154.222 19.8826C156.07 19.8826 157.575 18.312 157.575 16.1803C157.575 14.0365 156.071 12.4791 154.222 12.4803ZM154.222 18.4268C153.211 18.4268 152.337 17.5018 152.337 16.1827C152.337 14.8502 153.21 13.9385 154.222 13.9385C155.234 13.9385 156.108 14.849 156.108 16.1827C156.108 17.5006 155.234 18.4268 154.222 18.4268ZM163.201 12.7052V13.3074H163.151C162.823 12.8709 162.19 12.4791 161.393 12.4791C159.723 12.4791 158.19 14.1066 158.19 16.1972C158.19 18.2708 159.722 19.885 161.393 19.885C162.19 19.885 162.823 19.4933 163.151 19.0447H163.201V19.5767C163.201 20.9926 162.518 21.7507 161.417 21.7507C160.518 21.7507 159.962 21.0349 159.734 20.434L158.455 21.0228C158.821 22.0034 159.797 23.2101 161.416 23.2101C163.136 23.2101 164.591 22.0869 164.591 19.353V12.704L163.201 12.7052ZM161.519 18.4268C160.507 18.4268 159.657 17.4861 159.657 16.1972C159.657 14.8937 160.506 13.9397 161.519 13.9397C162.518 13.9397 163.303 14.8925 163.303 16.1972C163.304 17.4861 162.519 18.4268 161.519 18.4268ZM165.605 8.77798H167.074V19.6601H165.605V8.77798ZM171.099 18.4268C170.353 18.4268 169.82 18.0472 169.481 17.306L173.948 15.2565L173.794 14.8357C173.517 14.0099 172.668 12.4803 170.934 12.4803C169.213 12.4803 167.783 13.9809 167.783 16.1827C167.783 18.2563 169.2 19.8838 171.099 19.8838C172.631 19.8838 173.517 18.8476 173.883 18.243L172.744 17.4027C172.363 18.0206 171.844 18.428 171.099 18.4268ZM170.984 13.9107C171.566 13.9107 172.059 14.2336 172.224 14.6955L169.236 16.0702C169.199 14.6398 170.237 13.9107 170.984 13.9107Z" fill="#5961F9" fill-opacity="0.4"/>
<path id="path1235" fill-rule="evenodd" clip-rule="evenodd" d="M180.393 8.77747H176.882V19.6596H178.347V15.5377H180.394C182.019 15.5377 183.616 14.2343 183.616 12.157C183.616 10.0833 182.02 8.77868 180.396 8.77868L180.393 8.77747ZM180.431 14.0227H178.347V10.2913H180.431C181.527 10.2913 182.151 11.2985 182.151 12.157C182.151 13.001 181.527 14.0227 180.431 14.0227ZM185.889 19.6596V8.77747H184.424V19.6596H185.889ZM192.472 19.6403V15.4688C192.472 13.5366 191.169 12.4593 189.488 12.4593C188.428 12.4593 187.329 12.978 186.874 14.1254L188.175 14.7264C188.453 14.1254 188.971 13.9284 189.515 13.9284C190.272 13.9284 191.043 14.4326 191.055 15.3297V15.4422C190.789 15.2741 190.222 15.0214 189.526 15.0214C188.124 15.0214 186.697 15.8751 186.697 17.4711C186.697 18.9281 187.847 19.8652 189.135 19.8652C190.122 19.8652 190.664 19.3755 191.004 18.8024H191.055V19.6427H192.471L192.472 19.6403ZM189.313 18.4239C188.833 18.4239 188.163 18.1579 188.163 17.5013C188.163 16.661 188.998 16.3369 189.718 16.3369C190.363 16.3369 190.665 16.4905 191.058 16.7009C190.945 17.6779 190.2 18.4118 189.313 18.4239ZM197.625 12.6975L195.945 17.4143H195.895L194.151 12.6975H192.572L195.187 19.292L193.695 22.9593H195.224L199.253 12.6975H197.625Z" fill="#5961F9" fill-opacity="0.4"/>
</g>
</g>
</g>
<g id="Group 263">
<g id="Group 260">
<path id="Vector" d="M22.4443 13.3906C22.4222 11.134 24.4535 10.0361 24.5464 9.98497C23.396 8.44249 21.6129 8.23174 20.9863 8.21493C19.4887 8.07 18.036 9.03904 17.2732 9.03904C16.4951 9.03904 15.3203 8.22893 14.0541 8.25274C12.4249 8.27585 10.9006 9.14336 10.0647 10.4905C8.33942 13.2373 9.62611 17.2738 11.279 19.494C12.1058 20.5821 13.072 21.7955 14.3366 21.7528C15.5738 21.7066 16.036 21.0281 17.529 21.0281C19.0083 21.0281 19.4423 21.7528 20.732 21.7255C22.0598 21.7066 22.8958 20.6332 23.6937 19.536C24.6492 18.2904 25.0329 17.0623 25.0481 16.9993C25.0177 16.9895 22.4702 16.0947 22.4443 13.3906ZM20.0079 6.75437C20.6734 5.98908 21.1287 4.94792 21.0023 3.89136C20.0392 3.93057 18.8347 4.50401 18.1411 5.2525C17.5274 5.91206 16.9793 6.99313 17.1209 8.00978C18.2028 8.084 19.3136 7.50776 20.0079 6.75437Z" fill="#5961F9" fill-opacity="0.4"/>
<g id="Group">
<path id="Vector_2" d="M40.3688 21.5961H38.6397L37.6926 18.8591H34.4005L33.4983 21.5961H31.8149L35.0773 12.2782H37.0919L40.3688 21.5961ZM37.4071 17.7108L36.5506 15.2777C36.46 15.0292 36.2894 14.4438 36.0397 13.5224H36.0092C35.9087 13.9187 35.7481 14.504 35.5281 15.2777L34.686 17.7108H37.4071ZM48.7421 18.1541C48.7421 19.2967 48.4049 20.2 47.7295 20.863C47.125 21.4533 46.3736 21.748 45.4774 21.748C44.5098 21.748 43.8139 21.4309 43.3913 20.7951V24.3205H41.7681V17.0856C41.7681 16.3679 41.7476 15.632 41.708 14.8772H43.1355L43.2261 15.9422H43.2566C43.7979 15.1398 44.6194 14.7386 45.7218 14.7386C46.5837 14.7386 47.3032 15.0516 47.8788 15.6782C48.4536 16.3063 48.7421 17.1311 48.7421 18.1541ZM47.0885 18.2087C47.0885 17.5547 46.9286 17.0156 46.6073 16.5906C46.2563 16.1488 45.785 15.9275 45.1942 15.9275C44.7938 15.9275 44.4298 16.0507 44.1047 16.2937C43.7789 16.5388 43.5657 16.8587 43.466 17.255C43.4214 17.4032 43.3961 17.5558 43.3906 17.7094V18.8304C43.3906 19.3184 43.5535 19.7308 43.8794 20.0683C44.2052 20.4044 44.6285 20.5732 45.1493 20.5732C45.7607 20.5732 46.2365 20.3554 46.5768 19.9234C46.9179 19.49 47.0885 18.9186 47.0885 18.2087ZM57.1452 18.1541C57.1452 19.2967 56.8079 20.2 56.1326 20.863C55.5273 21.4533 54.7766 21.748 53.8798 21.748C52.9121 21.748 52.2162 21.4309 51.7936 20.7951V24.3205H50.1704V17.0856C50.1704 16.3679 50.1499 15.632 50.1103 14.8772H51.5378L51.6284 15.9422H51.6589C52.1995 15.1398 53.021 14.7386 54.1242 14.7386C54.9852 14.7386 55.7047 15.0516 56.2818 15.6782C56.8559 16.3063 57.1452 17.1311 57.1452 18.1541ZM55.4908 18.2087C55.4908 17.5547 55.3301 17.0156 55.0088 16.5906C54.6579 16.1488 54.1881 15.9275 53.5973 15.9275C53.1968 15.9275 52.8329 16.0507 52.5063 16.2937C52.1804 16.5388 51.968 16.8587 51.8683 17.255C51.8188 17.4399 51.7921 17.5904 51.7921 17.7094V18.8304C51.7921 19.3184 51.9558 19.7308 52.2801 20.0683C52.606 20.4037 53.0293 20.5732 53.5516 20.5732C54.1637 20.5732 54.6396 20.3554 54.9792 19.9234C55.3202 19.49 55.4908 18.9186 55.4908 18.2087ZM66.5403 18.9824C66.5403 19.7757 66.2388 20.4205 65.6396 20.9183C64.9803 21.4617 64.0598 21.734 62.8797 21.734C61.7895 21.734 60.9154 21.5408 60.2561 21.1536L60.6314 19.9094C61.3433 20.2973 62.1252 20.4905 62.9764 20.4905C63.5886 20.4905 64.0644 20.3631 64.404 20.1103C64.7443 19.8569 64.9164 19.518 64.9164 19.0951C64.9164 18.7163 64.774 18.3991 64.4946 18.1407C64.2136 17.8831 63.7492 17.6429 63.0967 17.4224C61.3228 16.8139 60.435 15.924 60.435 14.7533C60.435 13.9887 60.7487 13.3628 61.3745 12.8733C62.0004 12.3846 62.8302 12.1403 63.8626 12.1403C64.7846 12.1403 65.5528 12.288 66.1627 12.5828L65.7554 13.7997C65.1813 13.514 64.5334 13.3712 63.8086 13.3712C63.236 13.3712 62.7868 13.5007 62.4656 13.7584C62.1953 13.9887 62.0582 14.2695 62.0582 14.6028C62.0582 14.9704 62.2143 15.2756 62.5249 15.5151C62.7945 15.7357 63.2863 15.9758 63.9974 16.2335C64.8699 16.557 65.511 16.9336 65.9213 17.3664C66.3348 17.7991 66.5403 18.3389 66.5403 18.9824ZM71.9208 15.9975H70.1316V19.2596C70.1316 20.0893 70.4468 20.5031 71.0788 20.5031C71.3688 20.5031 71.6094 20.4807 71.7998 20.4338L71.8447 21.5674C71.5249 21.6773 71.1039 21.7326 70.5824 21.7326C69.9413 21.7326 69.4403 21.5527 69.0787 21.1928C68.7186 20.8329 68.5374 20.2301 68.5374 19.3815V15.9947H67.4715V14.8744H68.5374V13.6442L70.1316 13.2017V14.8744H71.9208V15.9975ZM79.9775 18.1814C79.9775 19.2141 79.6562 20.062 79.0151 20.7251C78.3444 21.4078 77.4521 21.748 76.3397 21.748C75.2662 21.748 74.4127 21.4211 73.7762 20.7678C73.1397 20.1131 72.8215 19.2883 72.8215 18.2934C72.8215 17.2522 73.1504 16.3994 73.8059 15.7364C74.463 15.0726 75.3477 14.7407 76.46 14.7407C77.532 14.7407 78.3931 15.0684 79.0448 15.7223C79.6676 16.3567 79.9775 17.1759 79.9775 18.1814ZM78.2949 18.2157C78.2949 17.6002 78.1502 17.0723 77.8601 16.6305C77.5198 16.0969 77.0325 15.8302 76.4014 15.8302C75.7512 15.8302 75.2525 16.0969 74.9129 16.6305C74.6221 17.0723 74.4774 17.6093 74.4774 18.2437C74.4774 18.8598 74.6221 19.3892 74.9129 19.8296C75.2639 20.3631 75.7535 20.6299 76.3877 20.6299C77.0082 20.6299 77.4947 20.3575 77.8464 19.8163C78.1449 19.364 78.2949 18.8325 78.2949 18.2157ZM85.2559 16.1901C85.0871 16.162 84.9159 16.1482 84.7443 16.1488C84.1733 16.1488 83.7317 16.3462 83.4211 16.7439C83.1516 17.094 83.016 17.5365 83.016 18.0707V21.5961H81.3928V16.9932C81.3943 16.2879 81.3785 15.5826 81.3456 14.8779H82.7595L82.8188 16.1635H82.8638C83.0358 15.7216 83.3053 15.3653 83.6754 15.0985C84.0141 14.8654 84.4256 14.7392 84.8486 14.7386C84.9986 14.7386 85.1341 14.7484 85.2544 14.7659L85.2559 16.1901ZM92.5155 17.9188C92.5196 18.1457 92.4997 18.3725 92.4561 18.5959H87.5864C87.6047 19.2596 87.8407 19.768 88.293 20.118C88.7034 20.4303 89.234 20.5872 89.8857 20.5872C90.6067 20.5872 91.2646 20.4821 91.8561 20.27L92.1104 21.3055C91.4191 21.5828 90.6029 21.7207 89.6611 21.7207C88.5282 21.7207 87.639 21.4141 86.9918 20.8021C86.3462 20.1895 86.0226 19.3661 86.0226 18.3347C86.0226 17.3222 86.3234 16.4785 86.9256 15.8057C87.556 15.0873 88.4079 14.7281 89.4799 14.7281C90.5329 14.7281 91.33 15.0873 91.8713 15.8057C92.3 16.3749 92.5155 17.0807 92.5155 17.9188ZM90.9676 17.5316C90.979 17.0884 90.8725 16.7068 90.6524 16.384C90.3715 15.9681 89.939 15.7609 89.3596 15.7609C88.829 15.7609 88.3965 15.9632 88.0676 16.3693C87.7973 16.6921 87.6367 17.08 87.5872 17.5302L90.9676 17.5316Z" fill="#5961F9" fill-opacity="0.4"/>
</g>
<g id="Group_2">
<path id="Vector_3" d="M33.9274 8.985C33.4759 8.985 33.0854 8.9647 32.7603 8.93039V4.42547C33.2149 4.36088 33.6744 4.32904 34.1345 4.33025C35.996 4.33025 36.8533 5.17256 36.8533 6.5456C36.8533 8.12939 35.8407 8.985 33.9274 8.985ZM34.2 4.90789C33.9487 4.90789 33.7348 4.92189 33.5574 4.9555V8.38005C33.6533 8.39406 33.8376 8.40036 34.0964 8.40036C35.3161 8.40036 36.0105 7.7618 36.0105 6.5659C36.0105 5.49954 35.3824 4.90789 34.2 4.90789ZM39.5249 9.01931C38.4757 9.01931 37.7959 8.29883 37.7959 7.32069C37.7959 6.30124 38.4902 5.57446 39.5843 5.57446C40.6182 5.57446 41.3133 6.26063 41.3133 7.26678C41.3133 8.29883 40.5969 9.01931 39.5249 9.01931ZM39.5553 6.11079C38.979 6.11079 38.6097 6.60651 38.6097 7.29969C38.6097 7.97955 38.9866 8.47528 39.5477 8.47528C40.1088 8.47528 40.4857 7.94525 40.4857 7.28568C40.4857 6.61352 40.1165 6.11079 39.5553 6.11079ZM47.296 5.64237L46.173 8.94439H45.4414L44.9762 7.51044C44.8605 7.15968 44.7642 6.80377 44.6876 6.44407H44.6724C44.6138 6.80396 44.5026 7.16455 44.3846 7.51044L43.8897 8.94439H43.1505L42.0937 5.64237H42.9137L43.3202 7.21216C43.4162 7.58606 43.4969 7.93894 43.5639 8.27223H43.5791C43.6377 7.99426 43.7337 7.64697 43.8745 7.21917L44.3846 5.64307H45.0348L45.5228 7.18556C45.6408 7.55945 45.7368 7.92634 45.8114 8.27293H45.8327C45.8845 7.93334 45.9659 7.57275 46.0763 7.18556L46.5126 5.64307L47.296 5.64237ZM51.4302 8.94439H50.6323V7.04832C50.6323 6.46438 50.3887 6.17171 49.9082 6.17171C49.4354 6.17171 49.1103 6.5456 49.1103 6.98041V8.94439H48.3124V6.58621C48.3124 6.29424 48.3048 5.98126 48.2827 5.64167H48.9847L49.022 6.1514H49.0441C49.2588 5.79851 49.6943 5.57446 50.1823 5.57446C50.9361 5.57446 51.4309 6.10449 51.4309 6.9671L51.4302 8.94439ZM53.6305 8.94439H52.8318V4.1272H53.6305V8.94439ZM56.5396 9.01931C55.4913 9.01931 54.8106 8.29883 54.8106 7.32069C54.8106 6.30124 55.505 5.57446 56.5983 5.57446C57.6329 5.57446 58.3273 6.26063 58.3273 7.26678C58.3281 8.29883 57.6109 9.01931 56.5396 9.01931ZM56.5693 6.11079C55.993 6.11079 55.6237 6.60651 55.6237 7.29969C55.6237 7.97955 56.0014 8.47528 56.561 8.47528C57.1228 8.47528 57.4989 7.94525 57.4989 7.28568C57.4997 6.61352 57.1312 6.11079 56.5693 6.11079ZM61.4732 8.94439L61.4154 8.5642H61.394C61.1504 8.87018 60.7948 9.01931 60.3441 9.01931C59.7008 9.01931 59.244 8.60481 59.244 8.04747C59.244 7.23247 60.0122 6.81096 61.3423 6.81096V6.75005C61.3423 6.31524 61.0918 6.09749 60.5969 6.09749C60.2429 6.09749 59.9322 6.17941 59.6589 6.34255L59.4967 5.86013C59.8287 5.66968 60.2429 5.57446 60.7294 5.57446C61.6674 5.57446 62.1409 6.02957 62.1409 6.9405V8.1567C62.1409 8.48998 62.1569 8.74835 62.1927 8.94509L61.4732 8.94439ZM61.3636 7.29969C60.4774 7.29969 60.0327 7.49713 60.0327 7.96555C60.0327 8.31214 60.2619 8.48158 60.5801 8.48158C60.9859 8.48158 61.3636 8.19661 61.3636 7.80941V7.29969ZM66.0155 8.94439L65.9781 8.41436H65.9561C65.7269 8.81486 65.3417 9.01931 64.8034 9.01931C63.9377 9.01931 63.2967 8.31914 63.2967 7.33399C63.2967 6.30124 63.9613 5.57376 64.8689 5.57376C65.3493 5.57376 65.6896 5.72289 65.8815 6.02257H65.8974V4.1272H66.6961V8.05447C66.6961 8.37375 66.7045 8.67273 66.7258 8.94439H66.0155ZM65.8974 7.00141C65.8974 6.5393 65.5647 6.1451 65.0569 6.1451C64.4653 6.1451 64.1037 6.62752 64.1037 7.30669C64.1037 7.97255 64.479 8.42837 65.0409 8.42837C65.5427 8.42837 65.8974 8.02717 65.8974 7.55175V7.00141ZM71.7599 9.01931C70.7115 9.01931 70.0316 8.29883 70.0316 7.32069C70.0316 6.30124 70.726 5.57446 71.8193 5.57446C72.8539 5.57446 73.5483 6.26063 73.5483 7.26678C73.5491 8.29883 72.8326 9.01931 71.7599 9.01931ZM71.7896 6.11079C71.214 6.11079 70.8447 6.60651 70.8447 7.29969C70.8447 7.97955 71.2216 8.47528 71.782 8.47528C72.3438 8.47528 72.7199 7.94525 72.7199 7.28568C72.7215 6.61352 72.3522 6.11079 71.7896 6.11079ZM77.8393 8.94439H77.0406V7.04832C77.0406 6.46438 76.797 6.17171 76.3166 6.17171C75.8438 6.17171 75.5194 6.5456 75.5194 6.98041V8.94439H74.7208V6.58621C74.7208 6.29424 74.7132 5.98126 74.6911 5.64167H75.3931L75.4304 6.1514H75.4524C75.6664 5.79851 76.1026 5.57376 76.5899 5.57376C77.3436 5.57376 77.8393 6.10379 77.8393 6.9664V8.94439ZM83.2076 6.19271H82.3298V7.79611C82.3298 8.20431 82.4835 8.40806 82.7942 8.40806C82.935 8.40806 83.053 8.39406 83.1482 8.37375L83.1703 8.93109C83.0157 8.9857 82.8086 9.01301 82.5513 9.01301C81.9224 9.01301 81.5463 8.69373 81.5463 7.85772V6.19271H81.0225V5.64237H81.5463V5.03742L82.3298 4.81967V5.64167H83.2076V6.19271ZM87.4316 8.94439H86.6345V7.06233C86.6345 6.47138 86.3916 6.17241 85.9104 6.17241C85.497 6.17241 85.1117 6.43077 85.1117 6.9538V8.94439H84.3146V4.1272H85.1117V6.11079H85.1277C85.379 5.7509 85.7429 5.57376 86.2073 5.57376C86.9672 5.57376 87.4316 6.11709 87.4316 6.98041V8.94439ZM91.7591 7.46983H89.3647C89.3799 8.09508 89.8299 8.44797 90.496 8.44797C90.8501 8.44797 91.1759 8.39336 91.4637 8.29183L91.5878 8.80156C91.2483 8.93739 90.8486 9.00531 90.3834 9.00531C89.2604 9.00531 88.5957 8.35275 88.5957 7.341C88.5957 6.32854 89.2764 5.56746 90.2935 5.56746C91.211 5.56746 91.7865 6.19271 91.7865 7.13725C91.7917 7.24871 91.7825 7.36035 91.7591 7.46983ZM91.0275 6.9468C91.0275 6.43707 90.7481 6.07718 90.2379 6.07718C89.7796 6.07718 89.4172 6.44407 89.3654 6.9468H91.0275Z" fill="#5961F9" fill-opacity="0.4"/>
</g>
</g>
</g>
</g>
<defs>
<linearGradient id="paint0_linear_690_28627" x1="120.381" y1="4.65616" x2="104.157" y2="8.55711" gradientUnits="userSpaceOnUse">
<stop stop-color="#00A0FF"/>
<stop offset="0.007" stop-color="#00A1FF"/>
<stop offset="0.26" stop-color="#00BEFF"/>
<stop offset="0.512" stop-color="#00D2FF"/>
<stop offset="0.76" stop-color="#00DFFF"/>
<stop offset="1" stop-color="#00E3FF"/>
</linearGradient>
<linearGradient id="paint1_linear_690_28627" x1="130.101" y1="14.7625" x2="110.563" y2="14.7625" gradientUnits="userSpaceOnUse">
<stop stop-color="#FFE000"/>
<stop offset="0.409" stop-color="#FFBD00"/>
<stop offset="0.775" stop-color="#FFA500"/>
<stop offset="1" stop-color="#FF9C00"/>
</linearGradient>
<linearGradient id="paint2_linear_690_28627" x1="122.825" y1="16.8178" x2="107.915" y2="39.4631" gradientUnits="userSpaceOnUse">
<stop stop-color="#FF3A44"/>
<stop offset="1" stop-color="#C31162"/>
</linearGradient>
<linearGradient id="paint3_linear_690_28627" x1="108.669" y1="-2.97423" x2="115.321" y2="7.14048" gradientUnits="userSpaceOnUse">
<stop stop-color="#32A071"/>
<stop offset="0.069" stop-color="#2DA771"/>
<stop offset="0.476" stop-color="#15CF74"/>
<stop offset="0.801" stop-color="#06E775"/>
<stop offset="1" stop-color="#00F076"/>
</linearGradient>
</defs>
</svg>
