<svg width="17" height="13" viewBox="0 0 17 13" fill="none" xmlns="http://www.w3.org/2000/svg">
<g id="XMLID_783_">
<path id="XMLID_784_" d="M10.0841 0.578878C9.82805 0.462878 9.51741 0.475589 9.27575 0.611945L4.74907 3.16666H0.787504C0.352592 3.16666 0 3.46515 0 3.83333V9.16666C0 9.53484 0.352592 9.83333 0.787504 9.83333H4.74907L9.27569 12.388C9.40747 12.4624 9.55977 12.5 9.71255 12.5C9.83991 12.5 9.96765 12.4739 10.0841 12.4211C10.3402 12.3051 10.5 12.0792 10.5 11.8333V1.16666C10.5001 0.92079 10.3402 0.694878 10.0841 0.578878ZM8.92505 10.5876L5.42433 8.61195C5.29497 8.53893 5.14298 8.5 4.98753 8.5H1.57501V4.49999H4.98753C5.14298 4.49999 5.29497 4.46101 5.42433 4.38804L8.92505 2.41235V10.5876Z" fill="#353E6C"/>
<path id="XMLID_787_" d="M15.6257 6.87501L16.2928 6.20791C16.5691 5.93157 16.5691 5.48358 16.2928 5.20725C16.0165 4.93092 15.5684 4.93092 15.2921 5.20725L14.625 5.87435L13.9579 5.20725C13.6816 4.93092 13.2335 4.93092 12.9572 5.20725C12.6809 5.48358 12.6809 5.93157 12.9572 6.20791L13.6243 6.87501L12.9572 7.54212C12.6809 7.81845 12.6809 8.26644 12.9572 8.54277C13.0954 8.68094 13.2765 8.75 13.4576 8.75C13.6387 8.75 13.8198 8.68094 13.9579 8.54277L14.625 7.87567L15.2921 8.54277C15.4303 8.68094 15.6114 8.75 15.7924 8.75C15.9735 8.75 16.1546 8.68094 16.2927 8.54277C16.569 8.26644 16.569 7.81845 16.2927 7.54212L15.6257 6.87501Z" fill="#353E6C"/>
</g>
</svg>
