<svg width="23" height="23" viewBox="0 0 23 23" fill="none" xmlns="http://www.w3.org/2000/svg">
<g id="PersonPlusFill" clip-path="url(#clip0_1311_10385)">
<path id="Vector" d="M1.40688 19.6962C1.40688 19.6962 0 19.6962 0 18.2893C0 16.8825 1.40688 12.6618 8.44125 12.6618C15.4756 12.6618 16.8825 16.8825 16.8825 18.2893C16.8825 19.6962 15.4756 19.6962 15.4756 19.6962H1.40688ZM8.44125 11.255C9.56063 11.255 10.6342 10.8103 11.4257 10.0188C12.2172 9.22726 12.6619 8.15373 12.6619 7.03435C12.6619 5.91497 12.2172 4.84143 11.4257 4.04991C10.6342 3.25839 9.56063 2.81372 8.44125 2.81372C7.32187 2.81372 6.24834 3.25839 5.45682 4.04991C4.6653 4.84143 4.22062 5.91497 4.22062 7.03435C4.22062 8.15373 4.6653 9.22726 5.45682 10.0188C6.24834 10.8103 7.32187 11.255 8.44125 11.255Z" fill="white"/>
<path id="Vector_2" fillRule="evenodd" clipRule="evenodd" d="M18.9928 7.03442C19.1793 7.03442 19.3583 7.10854 19.4902 7.24046C19.6221 7.37238 19.6962 7.5513 19.6962 7.73786V9.84817H21.8065C21.9931 9.84817 22.172 9.92229 22.3039 10.0542C22.4358 10.1861 22.51 10.365 22.51 10.5516C22.51 10.7382 22.4358 10.9171 22.3039 11.049C22.172 11.1809 21.9931 11.255 21.8065 11.255H19.6962V13.3654C19.6962 13.5519 19.6221 13.7308 19.4902 13.8628C19.3583 13.9947 19.1793 14.0688 18.9928 14.0688C18.8062 14.0688 18.6273 13.9947 18.4954 13.8628C18.3634 13.7308 18.2893 13.5519 18.2893 13.3654V11.255H16.179C15.9925 11.255 15.8135 11.1809 15.6816 11.049C15.5497 10.9171 15.4756 10.7382 15.4756 10.5516C15.4756 10.365 15.5497 10.1861 15.6816 10.0542C15.8135 9.92229 15.9925 9.84817 16.179 9.84817H18.2893V7.73786C18.2893 7.5513 18.3634 7.37238 18.4954 7.24046C18.6273 7.10854 18.8062 7.03442 18.9928 7.03442Z" fill="white"/>
</g>
<defs>
<clipPath id="clip0_1311_10385">
<rect width="22.51" height="22.51" fill="white"/>
</clipPath>
</defs>
</svg>
