<svg width="22" height="22" viewBox="0 0 22 22" fill="none" xmlns="http://www.w3.org/2000/svg">
<g id="Plus">
<path id="Combined Shape" d="M10.3864 10.6156V11.3656C10.8006 11.3656 11.1364 11.0298 11.1364 10.6156H10.3864ZM10.3864 11.3656H11.1364C11.1364 10.9514 10.8006 10.6156 10.3864 10.6156V11.3656ZM11.1364 11.3656V10.6156C10.7222 10.6156 10.3864 10.9514 10.3864 11.3656H11.1364ZM11.1364 10.6156H10.3864C10.3864 11.0298 10.7222 11.3656 11.1364 11.3656V10.6156ZM10.7614 7.70239C10.5543 7.70239 10.3864 7.5345 10.3864 7.32739H11.8864C11.8864 6.70607 11.3827 6.20239 10.7614 6.20239V7.70239ZM11.1364 7.32739C11.1364 7.5345 10.9685 7.70239 10.7614 7.70239V6.20239C10.1401 6.20239 9.63639 6.70607 9.63639 7.32739H11.1364ZM11.1364 10.6156V7.32739H9.63639V10.6156H11.1364ZM7.09473 11.3656H10.3864V9.86557H7.09473V11.3656ZM7.46973 10.9906C7.46973 11.1977 7.30183 11.3656 7.09473 11.3656V9.86557C6.47341 9.86557 5.96973 10.3693 5.96973 10.9906H7.46973ZM7.09473 10.6156C7.30183 10.6156 7.46973 10.7835 7.46973 10.9906H5.96973C5.96973 11.6119 6.47341 12.1156 7.09473 12.1156V10.6156ZM10.3864 10.6156H7.09473V12.1156H10.3864V10.6156ZM11.1364 14.6537V11.3656H9.63639V14.6537H11.1364ZM10.7614 14.2787C10.9685 14.2787 11.1364 14.4466 11.1364 14.6537H9.63639C9.63639 15.2751 10.1401 15.7787 10.7614 15.7787V14.2787ZM10.3864 14.6537C10.3864 14.4466 10.5543 14.2787 10.7614 14.2787V15.7787C11.3827 15.7787 11.8864 15.2751 11.8864 14.6537H10.3864ZM10.3864 11.3656V14.6537H11.8864V11.3656H10.3864ZM14.4281 10.6156H11.1364V12.1156H14.4281V10.6156ZM14.0531 10.9906C14.0531 10.7835 14.221 10.6156 14.4281 10.6156V12.1156C15.0494 12.1156 15.5531 11.6119 15.5531 10.9906H14.0531ZM14.4281 11.3656C14.221 11.3656 14.0531 11.1977 14.0531 10.9906H15.5531C15.5531 10.3692 15.0494 9.86557 14.4281 9.86557V11.3656ZM11.1364 11.3656H14.4281V9.86557H11.1364V11.3656ZM10.3864 7.32739V10.6156H11.8864V7.32739H10.3864Z" fill="white"/>
<path id="Path" fill-rule="evenodd" clip-rule="evenodd" d="M15.4474 1H6.076C2.80934 1 0.761719 3.31208 0.761719 6.58516V15.4148C0.761719 18.6879 2.79981 21 6.076 21H15.4474C18.7236 21 20.7617 18.6879 20.7617 15.4148V6.58516C20.7617 3.31208 18.7236 1 15.4474 1Z" stroke="white" stroke-width="1.5" stroke-linecap="round" stroke-linejoin="round"/>
</g>
</svg>
