<svg width="148" height="149" viewBox="0 0 148 149" fill="none" xmlns="http://www.w3.org/2000/svg">
<g id="qr-code-svgrepo-com 2" clip-path="url(#clip0_690_28745)">
<g id="Group">
<g id="Group_2">
<path id="Vector" d="M29.6001 15.1763H14.8V29.9763H29.6001V15.1763Z" fill="white"/>
</g>
</g>
<g id="Group_3">
<g id="Group_4">
<path id="Vector_2" d="M103.6 0.376221V7.77622H96.2V15.1762H103.6V44.7762H111V52.1762H103.6V59.5762H111H118.4V44.7762H140.6V52.1762H148V44.7762V0.376221H103.6ZM140.6 37.3762H111V7.77622H140.6V37.3762Z" fill="white"/>
</g>
</g>
<g id="Group_5">
<g id="Group_6">
<path id="Vector_3" d="M133.2 15.1763H118.4V29.9763H133.2V15.1763Z" fill="white"/>
</g>
</g>
<g id="Group_7">
<g id="Group_8">
<path id="Vector_4" d="M29.6001 118.776H14.8V133.576H29.6001V118.776Z" fill="white"/>
</g>
</g>
<g id="Group_9">
<g id="Group_10">
<path id="Vector_5" d="M111 103.976H103.6V111.376H111V103.976Z" fill="white"/>
</g>
</g>
<g id="Group_11">
<g id="Group_12">
<path id="Vector_6" d="M74 140.976H66.6V148.376H74V140.976Z" fill="white"/>
</g>
</g>
<g id="Group_13">
<g id="Group_14">
<path id="Vector_7" d="M81.4 111.376H74V118.776H81.4V111.376Z" fill="white"/>
</g>
</g>
<g id="Group_15">
<g id="Group_16">
<path id="Vector_8" d="M81.4 126.176H74V133.576H81.4V126.176Z" fill="white"/>
</g>
</g>
<g id="Group_17">
<g id="Group_18">
<path id="Vector_9" d="M148 89.1763H140.6V96.5763H148V89.1763Z" fill="white"/>
</g>
</g>
<g id="Group_19">
<g id="Group_20">
<path id="Vector_10" d="M7.4 89.1763H0V96.5763H7.4V89.1763Z" fill="white"/>
</g>
</g>
<g id="Group_21">
<g id="Group_22">
<path id="Vector_11" d="M7.4 52.1763H0V59.5763H7.4V52.1763Z" fill="white"/>
</g>
</g>
<g id="Group_23">
<g id="Group_24">
<path id="Vector_12" d="M81.4 7.77625V15.1762H66.6V22.5762H88.8V15.1762V7.77625H81.4Z" fill="white"/>
</g>
</g>
<g id="Group_25">
<g id="Group_26">
<path id="Vector_13" d="M140.6 59.5762V66.9762H125.8V74.3762H103.6V66.9762H96.2V74.3762H81.4001V81.7762H103.6V89.1762H88.8001H81.4001V81.7762H74V89.1762H66.6V81.7762H59.2001V89.1762H51.8V96.5762H66.6V103.976H74V96.5762H88.8001V103.976H81.4001V111.376H88.8001V126.176H96.2V133.576H103.6V126.176H125.8V111.376H133.2V103.976H125.8V89.1762H111V81.7762H125.8V89.1762H133.2V81.7762H140.6V74.3762H148V66.9762V59.5762H140.6ZM118.4 96.5762V118.776H96.2V96.5762H118.4Z" fill="white"/>
</g>
</g>
<g id="Group_27">
<g id="Group_28">
<path id="Vector_14" d="M96.2 44.7762H88.8V52.1762H81.4V59.5762V66.9762H88.8V59.5762H96.2V52.1762H103.6V44.7762H96.2Z" fill="white"/>
</g>
</g>
<g id="Group_29">
<g id="Group_30">
<path id="Vector_15" d="M96.2 140.976H81.4V148.376H96.2V140.976Z" fill="white"/>
</g>
</g>
<g id="Group_31">
<g id="Group_32">
<path id="Vector_16" d="M66.5999 7.77625H59.2V15.1762H66.5999V7.77625Z" fill="white"/>
</g>
</g>
<g id="Group_33">
<g id="Group_34">
<path id="Vector_17" d="M125.8 59.5762H118.4V66.9762H125.8V59.5762Z" fill="white"/>
</g>
</g>
<g id="Group_35">
<g id="Group_36">
<path id="Vector_18" d="M133.2 52.1763H125.8V59.5763H133.2V52.1763Z" fill="white"/>
</g>
</g>
<g id="Group_37">
<g id="Group_38">
<path id="Vector_19" d="M37 89.1763H29.6V96.5763H37V89.1763Z" fill="white"/>
</g>
</g>
<g id="Group_39">
<g id="Group_40">
<path id="Vector_20" d="M44.4 140.976V111.376H51.8V103.976V96.5762H44.4V103.976H22.2V96.5762H14.8H7.4V103.976H0V148.376H44.4H59.2V140.976H44.4ZM37 140.976H7.4V111.376H37V140.976Z" fill="white"/>
</g>
</g>
<g id="Group_41">
<g id="Group_42">
<path id="Vector_21" d="M51.8 44.7762H44.4V52.1762H51.8V44.7762Z" fill="white"/>
</g>
</g>
<g id="Group_43">
<g id="Group_44">
<path id="Vector_22" d="M51.8 0.376221H44.4H0V44.7762H7.4V52.1762H14.8V44.7762H22.2V52.1762H29.6V44.7762H44.4V29.9762H51.8V22.5762H44.4V7.77622H51.8H59.2V0.376221H51.8ZM37 37.3762H7.4V7.77622H37V37.3762Z" fill="white"/>
</g>
</g>
<g id="Group_45">
<g id="Group_46">
<path id="Vector_23" d="M96.2 22.5762H88.8V29.9762H96.2V22.5762Z" fill="white"/>
</g>
</g>
<g id="Group_47">
<g id="Group_48">
<path id="Vector_24" d="M81.4 0.376221H74V7.77622H81.4V0.376221Z" fill="white"/>
</g>
</g>
<g id="Group_49">
<g id="Group_50">
<path id="Vector_25" d="M88.8 44.7762V37.3762H81.4V29.9762H74V37.3762H59.2V29.9762H51.8V37.3762V44.7762H59.2V59.5762H37V52.1762H29.6V59.5762H7.4V66.9762H22.2V74.3762H0V81.7762H22.2V89.1762H29.6V81.7762H37V89.1762H44.4V81.7762H59.2V74.3762H51.8V66.9762H59.2H66.6V74.3762H74H81.4V66.9762H74V59.5762H66.6V44.7762H88.8ZM44.4 74.3762H29.6V66.9762H44.4V74.3762Z" fill="white"/>
</g>
</g>
<g id="Group_51">
<g id="Group_52">
<path id="Vector_26" d="M66.6 118.776V111.376V103.976H59.2001V111.376H51.8V118.776H59.2001V126.176H51.8V133.576H66.6V126.176H74V118.776H66.6Z" fill="white"/>
</g>
</g>
<g id="Group_53">
<g id="Group_54">
<path id="Vector_27" d="M133.2 133.576V126.176H125.8V133.576H103.6V140.976H118.4V148.376H125.8V140.976H140.6V148.376H148V140.976V133.576H133.2Z" fill="white"/>
</g>
</g>
<g id="Group_55">
<g id="Group_56">
<path id="Vector_28" d="M140.6 103.976V111.376H133.2V118.776H148V111.376V103.976H140.6Z" fill="white"/>
</g>
</g>
</g>
<defs>
<clipPath id="clip0_690_28745">
<rect width="148" height="148" fill="white" transform="translate(0 0.376221)"/>
</clipPath>
</defs>
</svg>
