<svg width="10" height="16" viewBox="0 0 10 16" fill="none" xmlns="http://www.w3.org/2000/svg">
<path id="Vector" d="M7.75 6.01224V3.1431C7.75 1.68578 6.51625 0.5 5 0.5C3.48375 0.5 2.25 1.68578 2.25 3.1431C2.25 3.28612 2.36175 3.40172 2.5 3.40172C2.63825 3.40172 2.75 3.28612 2.75 3.1431C2.75 1.97103 3.75925 1.01724 5 1.01724C6.24075 1.01724 7.25 1.97103 7.25 3.1431V5.71328L7.25025 5.71509C6.573 5.36 5.81 5.15517 5 5.15517C2.243 5.15517 0 7.47552 0 10.3276C0 13.1797 2.243 15.5 5 15.5C7.757 15.5 10 13.1797 10 10.3276C10 8.52603 9.104 6.93862 7.75 6.01224ZM6 10.8448C6 11.4153 5.5515 11.8793 5 11.8793C4.4485 11.8793 4 11.4153 4 10.8448V9.2931C4 8.72259 4.4485 8.25862 5 8.25862C5.5515 8.25862 6 8.72259 6 9.2931V10.8448Z" fill="#808191"/>
</svg>
