<svg width="24" height="24" viewBox="0 0 24 24" fill="none" xmlns="http://www.w3.org/2000/svg">
<g id="Secondary / Up">
<path id="Union (Stroke)" fillRule="evenodd" clipRule="evenodd" d="M12.3113 4.16796C12.1124 3.94401 11.7625 3.94401 11.5636 4.16796L5.12911 11.4121C4.84266 11.7346 5.07159 12.2442 5.50293 12.2442H7.93757C8.21371 12.2442 8.43757 12.468 8.43757 12.7442V18.9942C8.43757 19.2704 8.66143 19.4942 8.93757 19.4942H14.9376C15.2137 19.4942 15.4376 19.2704 15.4376 18.9942V12.7442C15.4376 12.468 15.6614 12.2442 15.9376 12.2442H18.3719C18.8033 12.2442 19.0322 11.7346 18.7458 11.4121L12.3113 4.16796L12.6851 3.83591L12.3113 4.16796ZM10.816 3.50387C11.4127 2.83204 12.4622 2.83204 13.0589 3.50387L19.4934 10.748C20.3528 11.7155 19.666 13.2442 18.3719 13.2442H16.4376V18.9942C16.4376 19.8227 15.766 20.4942 14.9376 20.4942H8.93757C8.10914 20.4942 7.43757 19.8227 7.43757 18.9942V13.2442H5.50293C4.20892 13.2442 3.52211 11.7155 4.38145 10.748L10.816 3.50387Z" fill="white"/>
</g>
</svg>
