<svg width="11" height="18" viewBox="0 0 11 18" fill="none" xmlns="http://www.w3.org/2000/svg">
<g id="Group 27">
<g id="Group">
<path id="Vector" d="M6.5553 1.896C6.36117 1.896 6.20361 2.03756 6.20361 2.21198V6.00374C6.20361 6.17816 6.36117 6.31972 6.5553 6.31972C6.74944 6.31972 6.90699 6.17816 6.90699 6.00374V2.21198C6.90699 2.03756 6.74944 1.896 6.5553 1.896Z" fill="#3BA55D"/>
<path id="Vector_2" d="M4.44495 1.896C4.25082 1.896 4.09326 2.03756 4.09326 2.21198V6.00374C4.09326 6.17816 4.25082 6.31972 4.44495 6.31972C4.63908 6.31972 4.79664 6.17816 4.79664 6.00374V2.21198C4.79664 2.03756 4.63908 1.896 4.44495 1.896Z" fill="#3BA55D"/>
<path id="Vector_3" d="M10.7502 0.334939C10.5497 0.121968 10.2557 0 9.94481 0H1.0555C0.744609 0 0.450596 0.121968 0.250133 0.334939C0.0496703 0.54791 -0.0368454 0.827868 0.0145013 1.1034L1.84188 10.9544L1.31364 11.0233C0.91342 11.0757 0.587052 11.3228 0.46185 11.6685C0.336649 12.0142 0.439342 12.3864 0.728431 12.6398L2.21678 13.9429C2.29978 14.015 2.33776 14.1199 2.31807 14.2216L1.96638 16.0619C1.89815 16.4202 2.05852 16.7754 2.38559 16.989C2.57058 17.1097 2.78722 17.171 3.00457 17.171C3.17197 17.171 3.34148 17.1343 3.49693 17.061L5.33627 16.1927C5.43896 16.1447 5.56065 16.1447 5.66334 16.1927L7.50268 17.061C7.85929 17.2298 8.28624 17.2026 8.61401 16.989C8.94109 16.7754 9.10146 16.4209 9.03323 16.0619L8.68154 14.2216C8.66185 14.1199 8.69983 14.015 8.78283 13.9429L10.2712 12.6398C10.561 12.3864 10.663 12.0142 10.5378 11.6685C10.4126 11.3222 10.0862 11.0757 9.68596 11.0233L9.15773 10.9544L10.9851 1.1034C11.0372 0.8285 10.9513 0.54791 10.7502 0.334939ZM8.40582 11.1693C8.39034 11.2533 8.41285 11.3393 8.46841 11.4075C8.52398 11.4758 8.60839 11.5219 8.70194 11.5339L9.58608 11.6496C9.72113 11.6666 9.82734 11.7475 9.86955 11.8644C9.91175 11.9813 9.87869 12.102 9.78092 12.188L8.29257 13.4911C8.04357 13.7091 7.93033 14.0232 7.98941 14.3303L8.3411 16.1706C8.36432 16.2913 8.31156 16.407 8.20113 16.479C8.0907 16.551 7.95213 16.5593 7.83045 16.503L5.99182 15.6347C5.68374 15.4894 5.31728 15.4894 5.0099 15.6347L3.17056 16.503C3.04818 16.5593 2.91031 16.551 2.79988 16.479C2.68945 16.407 2.6374 16.2913 2.65991 16.1706L3.0116 14.3303C3.06998 14.0232 2.95674 13.7091 2.70844 13.4911L1.22009 12.188C1.12162 12.102 1.08856 11.9813 1.13147 11.8644C1.17437 11.7475 1.27988 11.6673 1.41493 11.6496L2.29908 11.5339C2.29908 11.5339 2.29908 11.5339 2.29978 11.5339L3.47231 11.381C3.81556 11.3355 4.11239 11.1415 4.26572 10.8621L5.18504 9.18871C5.30673 8.96752 5.69499 8.96752 5.81597 9.18871L6.5918 10.6005C6.67761 10.756 6.88792 10.8217 7.06236 10.744C7.2368 10.6669 7.30854 10.4773 7.22203 10.3205L6.4462 8.90875C6.26684 8.58202 5.9046 8.3798 5.50015 8.3798C5.09571 8.3798 4.73347 8.58202 4.55411 8.90812L3.63479 10.5815C3.58345 10.6751 3.48427 10.7402 3.37032 10.7547L2.53823 10.8634L0.708033 0.999762C0.691152 0.906863 0.718584 0.815861 0.786811 0.743818C0.855039 0.671774 0.949995 0.631961 1.0555 0.631961H9.94551C10.051 0.631961 10.146 0.671142 10.2142 0.743818C10.2824 0.816493 10.3099 0.906863 10.293 0.999762L8.40582 11.1693Z" fill="#3BA55D"/>
</g>
</g>
</svg>
